0
SECTION
2
HEADER
9
$INSUNITS
70
4
9
$ACADVER
1
AC1014
9
$HANDSEED
5
FFFF
0
ENDSEC
0
SECTION
2
TABLES
0
TABLE
2
VPORT
5
8
100
AcDbSymbolTable
0
ENDTAB
0
TABLE
2
LTYPE
5
5
100
AcDbSymbolTable
0
LTYPE
5
14
100
AcDbSymbolTableRecord
100
AcDbLinetypeTableRecord
2
BYBLOCK
70
0
0
LTYPE
5
15
100
AcDbSymbolTableRecord
100
AcDbLinetypeTableRecord
2
BYLAYER
70
0
0
ENDTAB
0
TABLE
2
LAYER
5
2
100
AcDbSymbolTable
70
2
0
LAYER
5
50
100
AcDbSymbolTableRecord
100
AcDbLayerTableRecord
2
0
70
0
6
CONTINUOUS
0
ENDTAB
0
TABLE
2
STYLE
5
3
100
AcDbSymbolTable
70
1
0
STYLE
5
11
100
AcDbSymbolTableRecord
100
AcDbTextStyleTableRecord
2
STANDARD
70
0
0
ENDTAB
0
TABLE
2
VIEW
5
6
100
AcDbSymbolTable
70
0
0
ENDTAB
0
TABLE
2
UCS
5
7
100
AcDbSymbolTable
70
0
0
ENDTAB
0
TABLE
2
APPID
5
9
100
AcDbSymbolTable
70
2
0
APPID
5
12
100
AcDbSymbolTableRecord
100
AcDbRegAppTableRecord
2
ACAD
70
0
0
ENDTAB
0
TABLE
2
DIMSTYLE
5
A
100
AcDbSymbolTable
70
1
0
ENDTAB
0
TABLE
2
BLOCK_RECORD
5
1
100
AcDbSymbolTable
70
1
0
BLOCK_RECORD
5
1F
100
AcDbSymbolTableRecord
100
AcDbBlockTableRecord
2
*MODEL_SPACE
0
BLOCK_RECORD
5
1B
100
AcDbSymbolTableRecord
100
AcDbBlockTableRecord
2
*PAPER_SPACE
0
ENDTAB
0
ENDSEC
0
SECTION
2
BLOCKS
0
BLOCK
5
20
100
AcDbEntity
100
AcDbBlockBegin
2
*MODEL_SPACE
0
ENDBLK
5
21
100
AcDbEntity
100
AcDbBlockEnd
0
BLOCK
5
1C
100
AcDbEntity
100
AcDbBlockBegin
2
*PAPER_SPACE
0
ENDBLK
5
1D
100
AcDbEntity
100
AcDbBlockEnd
0
ENDSEC
0
SECTION
2
ENTITIES
0
LWPOLYLINE
5
100
100
AcDbEntity
8
0
100
AcDbPolyline
90
42
70
1
43
0.0
10
120.17526985714525
20
21.388871714402356
42
-0.13224355442703628
10
121.68221616278997
20
20.986862309878394
10
150.44585318304075
20
4.3777836187391754
42
0.41421972233579119
10
154.54402922415204
20
5.4756596137010742
10
165.73610877820943
20
24.859067634308548
42
0.41421283766276246
10
164.63820766160833
20
28.95718532423162
10
160.46705965209543
20
31.365641414719214
42
-0.2679744925935304
10
158.96717303737017
20
33.964066333619193
10
158.9777122428292
20
110.30610271829485
42
0.38063337096479205
10
156.32532865023529
20
113.28630929345238
10
144.6202087469442
20
114.65180420850473
42
0.44865196113866479
10
143.50433662067141
20
113.65854006923811
10
143.50433662067141
20
100.92601604784338
42
-0.41421356237310542
10
142.50433662067141
20
99.92601604784339
10
136.40433659086912
20
99.926016047843405
42
-0.41421356237309503
10
135.40433659086912
20
100.9260160478434
10
135.40433659086912
20
114.83678504209362
42
0.38059385804988582
10
134.52020871714194
20
115.83004918136021
10
103.03127037329681
20
119.50348316103502
42
0.44865196113866479
10
101.91539824702402
20
118.51021902176841
10
101.915398247024
20
85.37244002224611
42
-0.41421356237309503
10
100.915398247024
20
84.37244002224611
10
82.71539821722169
20
84.37244002224611
42
-0.41421356237310542
10
81.71539821722169
20
85.37244002224611
10
81.715398217221704
20
118.47500569981216
42
0.45111957210519238
10
80.591376411180704
20
119.46728519250883
10
59.554874062053244
20
116.83800076878885
42
0.37824617519181919
10
58.678895868094216
20
115.84572127609219
10
58.678895868094223
20
111.61613284418314
42
-0.41421356237309503
10
57.67889586809423
20
110.61613284418314
10
49.778895868094217
20
110.61613284418314
42
-0.41421356237309503
10
48.778895868094224
20
111.61613284418314
10
48.778895868094224
20
114.35837874533327
42
0.45111957210519504
10
47.654874062053246
20
115.35065823802995
10
27.306296853294015
20
112.80735535374257
42
0.37824617519183118
10
24.678362271416955
20
109.83051687565258
10
24.678362271416951
20
19.630016875652593
42
0.41421356237309531
10
27.678362271416947
20
16.630016875652593
10
60.727712271416934
20
16.630016875652593
42
0.060142269663889344
10
61.441635035478875
20
16.716202487783292
10
79.794801657427683
20
21.212969165365763
42
-0.059574848521106935
10
80.501939683794902
20
21.299147105375727
0
CIRCLE
5
101
100
AcDbEntity
8
0
100
AcDbCircle
10
44.203162271416936
20
93.305566875652559
30
0
40
1.1499999999999999
210
0
220
0
230
1
0
CIRCLE
5
102
100
AcDbEntity
8
0
100
AcDbCircle
10
44.203162271416964
20
36.155566875652582
30
0
40
1.1499999999999999
210
0
220
0
230
1
0
CIRCLE
5
103
100
AcDbEntity
8
0
100
AcDbCircle
10
81.736605259659854
20
41.216354950356447
30
0
40
1.1499999999999999
210
0
220
0
230
1
0
CIRCLE
5
104
100
AcDbEntity
8
0
100
AcDbCircle
10
78.477887271416932
20
98.067366875652596
30
0
40
1.1499999999999999
210
0
220
0
230
1
0
CIRCLE
5
105
100
AcDbEntity
8
0
100
AcDbCircle
10
123.08410173408809
20
31.722738578863705
30
0
40
1.1499999999999999
210
0
220
0
230
1
0
CIRCLE
5
106
100
AcDbEntity
8
0
100
AcDbCircle
10
144.54423207218397
20
32.255823872909012
30
0
40
1.1499999999999999
210
0
220
0
230
1
0
CIRCLE
5
107
100
AcDbEntity
8
0
100
AcDbCircle
10
105.17823727141692
20
98.067366875652624
30
0
40
1.1499999999999999
210
0
220
0
230
1
0
CIRCLE
5
108
100
AcDbEntity
8
0
100
AcDbCircle
10
138.84789393678892
20
95.567413018463441
30
0
40
1.1499999999999999
210
0
220
0
230
1
0
CIRCLE
5
109
100
AcDbEntity
8
0
100
AcDbCircle
10
139.45321227141702
20
56.633916875652623
30
0
40
1.1499999999999999
210
0
220
0
230
1
0
LWPOLYLINE
5
110
100
AcDbEntity
8
0
100
AcDbPolyline
90
8
70
1
43
0.0
10
150.27724592495662
20
96.081616942355822
10
147.67724592495659
20
96.081616942355822
42
0.41421356237309503
10
146.67724592495662
20
95.081616942355808
10
146.67724592495662
20
92.481616942355785
42
0.41421356237309503
10
147.67724592495659
20
91.481616942355814
10
150.27724592495662
20
91.481616942355814
42
0.41421356237309503
10
151.27724592495659
20
92.481616942355785
10
151.27724592495659
20
95.081616942355808
42
0.41421356237309503
0
LWPOLYLINE
5
111
100
AcDbEntity
8
0
100
AcDbPolyline
90
8
70
1
43
0.0
10
109.5780622714169
20
95.767366875652598
10
112.17806227141692
20
95.767366875652598
42
0.41421356237309503
10
113.17806227141689
20
96.767366875652584
10
113.17806227141689
20
99.367366875652593
42
0.41421356237309503
10
112.17806227141692
20
100.36736687565261
10
109.5780622714169
20
100.36736687565261
42
0.41421356237309503
10
108.57806227141693
20
99.367366875652593
10
108.57806227141693
20
96.767366875652584
42
0.41421356237309503
0
LWPOLYLINE
5
112
100
AcDbEntity
8
0
100
AcDbPolyline
90
8
70
1
43
0.0
10
74.078062271416954
20
100.36736687565261
10
71.478062271416945
20
100.36736687565261
42
0.41421356237309503
10
70.478062271416945
20
99.367366875652593
10
70.478062271416945
20
96.767366875652584
42
0.41421356237309503
10
71.478062271416945
20
95.767366875652598
10
74.078062271416954
20
95.767366875652598
42
0.41421356237309503
10
75.078062271416954
20
96.767366875652584
10
75.078062271416954
20
99.367366875652593
42
0.41421356237309503
0
LWPOLYLINE
5
113
100
AcDbEntity
8
0
100
AcDbPolyline
90
8
70
1
43
0.0
10
150.27821227141689
20
57.981616875652605
10
147.6782122714169
20
57.981616875652605
42
0.41421356237309503
10
146.6782122714169
20
56.981616875652591
10
146.6782122714169
20
54.381616875652568
42
0.41421356237309503
10
147.6782122714169
20
53.381616875652597
10
150.27821227141689
20
53.381616875652597
42
0.41421356237309503
10
151.27821227141692
20
54.381616875652568
10
151.27821227141692
20
56.981616875652591
42
0.41421356237309503
0
LWPOLYLINE
5
114
100
AcDbEntity
8
0
100
AcDbPolyline
90
8
70
1
43
0.0
10
137.07884602065664
20
33.276733994245383
10
139.67884602065664
20
33.276733994245383
42
0.41421356237309503
10
140.67884602065664
20
34.276733994245362
10
140.67884602065664
20
36.876733994245377
42
0.41421356237309503
10
139.67884602065664
20
37.876733994245392
10
137.07884602065664
20
37.876733994245392
42
0.41421356237309503
10
136.07884602065664
20
36.876733994245377
10
136.07884602065664
20
34.276733994245362
42
0.41421356237309503
0
LWPOLYLINE
5
115
100
AcDbEntity
8
0
100
AcDbPolyline
90
8
70
1
43
0.0
10
70.478062271416917
20
42.169916875652603
42
-0.41421356237309503
10
71.478062271416931
20
43.169916875652618
10
74.07806227141694
20
43.169916875652575
42
-0.41421356237309503
10
75.078062271416925
20
42.169916875652603
10
75.078062271416925
20
39.569916875652581
42
-0.41421356237309503
10
74.07806227141694
20
38.569916875652609
10
71.478062271416931
20
38.569916875652609
42
-0.41421356237309503
10
70.478062271416945
20
39.569916875652581
0
LWPOLYLINE
5
116
100
AcDbEntity
8
0
100
AcDbPolyline
90
8
70
1
43
0.0
10
33.378137271416968
20
33.855566875652585
42
-0.41421356237309503
10
32.378137271416975
20
34.855566875652585
10
32.378137271416954
20
37.4555668756526
42
-0.41421356237309503
10
33.378137271416968
20
38.455566875652615
10
35.978137271416969
20
38.455566875652615
42
-0.41421356237309503
10
36.978137271416983
20
37.4555668756526
10
36.978137271416941
20
34.855566875652585
42
-0.41421356237309503
10
35.978137271416969
20
33.855566875652606
0
LWPOLYLINE
5
117
100
AcDbEntity
8
0
100
AcDbPolyline
90
8
70
1
43
0.0
10
108.57806227141691
20
42.21736687565258
42
-0.41421356237309503
10
109.57806227141691
20
43.217366875652594
10
112.17806227141692
20
43.217366875652594
42
-0.41421356237309503
10
113.17806227141693
20
42.21736687565258
10
113.17806227141689
20
39.617366875652564
42
-0.41421356237309503
10
112.17806227141692
20
38.617366875652586
10
109.57806227141691
20
38.617366875652564
42
-0.41421356237309503
10
108.57806227141693
20
39.617366875652564
0
LWPOLYLINE
5
118
100
AcDbEntity
8
0
100
AcDbPolyline
90
8
70
1
43
0.0
10
33.378137271416946
20
91.005566875652562
42
-0.41421356237309503
10
32.378137271416946
20
92.005566875652548
10
32.378137271416932
20
94.605566875652571
42
-0.41421356237309503
10
33.378137271416946
20
95.605566875652585
10
35.978137271416955
20
95.605566875652556
42
-0.41421356237309503
10
36.978137271416948
20
94.605566875652571
10
36.978137271416934
20
92.005566875652548
42
-0.41421356237309503
10
35.978137271416955
20
91.005566875652576
0
ENDSEC
0
SECTION
2
OBJECTS
0
DICTIONARY
5
C
100
AcDbDictionary
3
ACAD_GROUP
350
D
3
ACAD_MLINESTYLE
350
17
0
DICTIONARY
5
D
100
AcDbDictionary
0
DICTIONARY
5
1A
330
C
100
AcDbDictionary
0
DICTIONARY
5
17
100
AcDbDictionary
0
ENDSEC
0
EOF
