0
SECTION
2
HEADER
9
$INSUNITS
70
4
9
$ACADVER
1
AC1014
9
$HANDSEED
5
FFFF
0
ENDSEC
0
SECTION
2
TABLES
0
TABLE
2
VPORT
5
8
100
AcDbSymbolTable
0
ENDTAB
0
TABLE
2
LTYPE
5
5
100
AcDbSymbolTable
0
LTYPE
5
14
100
AcDbSymbolTableRecord
100
AcDbLinetypeTableRecord
2
BYBLOCK
70
0
0
LTYPE
5
15
100
AcDbSymbolTableRecord
100
AcDbLinetypeTableRecord
2
BYLAYER
70
0
0
ENDTAB
0
TABLE
2
LAYER
5
2
100
AcDbSymbolTable
70
2
0
LAYER
5
50
100
AcDbSymbolTableRecord
100
AcDbLayerTableRecord
2
0
70
0
6
CONTINUOUS
0
ENDTAB
0
TABLE
2
STYLE
5
3
100
AcDbSymbolTable
70
1
0
STYLE
5
11
100
AcDbSymbolTableRecord
100
AcDbTextStyleTableRecord
2
STANDARD
70
0
0
ENDTAB
0
TABLE
2
VIEW
5
6
100
AcDbSymbolTable
70
0
0
ENDTAB
0
TABLE
2
UCS
5
7
100
AcDbSymbolTable
70
0
0
ENDTAB
0
TABLE
2
APPID
5
9
100
AcDbSymbolTable
70
2
0
APPID
5
12
100
AcDbSymbolTableRecord
100
AcDbRegAppTableRecord
2
ACAD
70
0
0
ENDTAB
0
TABLE
2
DIMSTYLE
5
A
100
AcDbSymbolTable
70
1
0
ENDTAB
0
TABLE
2
BLOCK_RECORD
5
1
100
AcDbSymbolTable
70
1
0
BLOCK_RECORD
5
1F
100
AcDbSymbolTableRecord
100
AcDbBlockTableRecord
2
*MODEL_SPACE
0
BLOCK_RECORD
5
1B
100
AcDbSymbolTableRecord
100
AcDbBlockTableRecord
2
*PAPER_SPACE
0
ENDTAB
0
ENDSEC
0
SECTION
2
BLOCKS
0
BLOCK
5
20
100
AcDbEntity
100
AcDbBlockBegin
2
*MODEL_SPACE
0
ENDBLK
5
21
100
AcDbEntity
100
AcDbBlockEnd
0
BLOCK
5
1C
100
AcDbEntity
100
AcDbBlockBegin
2
*PAPER_SPACE
0
ENDBLK
5
1D
100
AcDbEntity
100
AcDbBlockEnd
0
ENDSEC
0
SECTION
2
ENTITIES
0
LWPOLYLINE
5
100
100
AcDbEntity
8
0
100
AcDbPolyline
90
4
70
1
43
0.0
10
103.87841227141692
20
62.492716875652576
10
117.87771227141691
20
62.492716875652576
10
117.87771227141691
20
76.492016875652553
10
103.87841227141692
20
76.492016875652553
0
LWPOLYLINE
5
101
100
AcDbEntity
8
0
100
AcDbPolyline
90
4
70
1
43
0.0
10
122.92841227141692
20
55.060716875652574
10
122.92841227141692
20
41.06141687565259
10
136.92771227141691
20
41.06141687565259
10
136.92771227141691
20
55.060716875652574
0
LWPOLYLINE
5
102
100
AcDbEntity
8
0
100
AcDbPolyline
90
4
70
1
43
0.0
10
98.8277122714169
20
97.923216875652571
10
84.828412271416923
20
97.923216875652571
10
84.828412271416923
20
83.923916875652566
10
98.8277122714169
20
83.923916875652566
0
LWPOLYLINE
5
103
100
AcDbEntity
8
0
100
AcDbPolyline
90
4
70
1
43
0.0
10
84.828412271416923
20
64.873916875652583
10
98.8277122714169
20
64.873916875652583
10
98.8277122714169
20
78.873216875652574
10
84.828412271416923
20
78.873216875652574
0
LWPOLYLINE
5
104
100
AcDbEntity
8
0
100
AcDbPolyline
90
4
70
1
43
0.0
10
117.87771227141691
20
43.442716875652579
10
117.87771227141691
20
57.442016875652577
10
103.87841227141692
20
57.442016875652577
10
103.87841227141692
20
43.442716875652579
0
LWPOLYLINE
5
105
100
AcDbEntity
8
0
100
AcDbPolyline
90
4
70
1
43
0.0
10
117.87771227141691
20
38.392016875652587
10
103.87841227141692
20
38.392016875652587
10
103.87841227141692
20
24.392516875652596
10
117.87771227141691
20
24.392516875652596
0
CIRCLE
5
106
100
AcDbEntity
8
0
100
AcDbCircle
10
123.08410173408808
20
31.722738578863733
30
0
40
1.1499999999999999
210
0
220
0
230
1
0
LWPOLYLINE
5
107
100
AcDbEntity
8
0
100
AcDbPolyline
90
22
70
1
43
0.0
10
120.17526985714525
20
21.388871714402356
42
-0.13224355442703628
10
121.68221616278997
20
20.986862309878394
10
150.44585318304075
20
4.3777836187391754
42
0.41421972233579119
10
154.54402922415204
20
5.4756596137010742
10
165.73610877820943
20
24.859067634308548
42
0.41421283766276246
10
164.63820766160833
20
28.95718532423162
10
160.46705965209543
20
31.365641414719214
42
-0.2679744925935304
10
158.96717303737017
20
33.964066333619193
10
158.9777122428292
20
110.30610271829485
42
0.38063337096479205
10
156.32532865023529
20
113.28630929345238
10
99.175328650235258
20
119.95330929345236
42
0.029041409274494057
10
98.827712271416871
20
119.97351687565256
10
84.828412271416937
20
119.97351687565256
42
0.031095507938070456
10
84.456346853294022
20
119.95035535374254
10
27.306296853294015
20
112.80735535374257
42
0.37824617519183118
10
24.678362271416955
20
109.83051687565258
10
24.678362271416951
20
19.630016875652593
42
0.41421356237309531
10
27.678362271416947
20
16.630016875652593
10
60.727712271416934
20
16.630016875652593
42
0.060142269663889344
10
61.441635035478875
20
16.716202487783292
10
79.794801657427683
20
21.212969165365763
42
-0.059574848521106935
10
80.501939683794902
20
21.299147105375727
0
LWPOLYLINE
5
108
100
AcDbEntity
8
0
100
AcDbPolyline
90
4
70
1
43
0.0
10
98.8277122714169
20
26.773816875652589
10
98.8277122714169
20
40.773216875652587
10
84.828412271416923
20
40.773216875652587
10
84.828412271416923
20
26.773816875652589
0
LWPOLYLINE
5
109
100
AcDbEntity
8
0
100
AcDbPolyline
90
4
70
1
43
0.0
10
123.32391227141692
20
23.501016875652589
10
130.3247122714169
20
35.625016875652584
10
142.44871227141689
20
28.625916875652585
10
135.44771227141689
20
16.501916875652597
0
LWPOLYLINE
5
110
100
AcDbEntity
8
0
100
AcDbPolyline
90
4
70
1
43
0.0
10
161.04071227141688
20
22.730616875652593
10
154.04171227141691
20
10.605296875652597
10
141.91771227141689
20
17.605716875652597
10
148.91671227141688
20
29.731116875652589
0
LWPOLYLINE
5
111
100
AcDbEntity
8
0
100
AcDbPolyline
90
4
70
1
43
0.0
10
122.92841227141692
20
60.111416875652573
10
136.92771227141691
20
60.111416875652573
10
136.92771227141691
20
74.110716875652571
10
122.92841227141692
20
74.110716875652571
0
LWPOLYLINE
5
112
100
AcDbEntity
8
0
100
AcDbPolyline
90
4
70
1
43
0.0
10
122.92841227141692
20
93.160716875652568
10
122.92841227141692
20
79.161416875652577
10
136.92771227141691
20
79.161416875652577
10
136.92771227141691
20
93.160716875652568
0
LWPOLYLINE
5
113
100
AcDbEntity
8
0
100
AcDbPolyline
90
4
70
1
43
0.0
10
103.87841227141692
20
114.59151687565254
10
103.87841227141692
20
100.59271687565257
10
117.87771227141691
20
100.59271687565257
10
117.87771227141691
20
114.59151687565254
0
LWPOLYLINE
5
114
100
AcDbEntity
8
0
100
AcDbPolyline
90
4
70
1
43
0.0
10
117.87771227141691
20
95.542016875652564
10
103.87841227141692
20
95.542016875652564
10
103.87841227141692
20
81.542716875652559
10
117.87771227141691
20
81.542716875652559
0
LWPOLYLINE
5
115
100
AcDbEntity
8
0
100
AcDbPolyline
90
4
70
1
43
0.0
10
136.92771227141691
20
98.211416875652574
10
136.92771227141691
20
112.21051687565256
10
122.92841227141692
20
112.21051687565256
10
122.92841227141692
20
98.211416875652574
0
LWPOLYLINE
5
116
100
AcDbEntity
8
0
100
AcDbPolyline
90
4
70
1
43
0.0
10
98.8277122714169
20
102.97351687565255
10
98.8277122714169
20
116.97351687565256
10
84.828412271416923
20
116.97351687565256
10
84.828412271416923
20
102.97351687565255
0
CIRCLE
5
117
100
AcDbEntity
8
0
100
AcDbCircle
10
105.1782372714169
20
98.067366875652567
30
0
40
1.1499999999999999
210
0
220
0
230
1
0
LWPOLYLINE
5
118
100
AcDbEntity
8
0
100
AcDbPolyline
90
4
70
1
43
0.0
10
27.678362271416947
20
38.680216875652583
10
41.677912271416943
20
38.680216875652583
10
41.677912271416943
20
52.680916875652585
10
27.678362271416947
20
52.680916875652585
0
LWPOLYLINE
5
119
100
AcDbEntity
8
0
100
AcDbPolyline
90
4
70
1
43
0.0
10
41.677912271416943
20
19.630016875652593
10
41.677912271416943
20
33.630916875652595
10
27.678362271416947
20
33.630916875652595
10
27.678362271416947
20
19.630016875652593
0
LWPOLYLINE
5
120
100
AcDbEntity
8
0
100
AcDbPolyline
90
4
70
1
43
0.0
10
60.727712271416934
20
38.680216875652583
10
60.727712271416934
20
52.680916875652585
10
46.728412271416943
20
52.680916875652585
10
46.728412271416943
20
38.680216875652583
0
CIRCLE
5
121
100
AcDbEntity
8
0
100
AcDbCircle
10
44.203162271416936
20
36.155566875652589
30
0
40
1.1499999999999999
210
0
220
0
230
1
0
CIRCLE
5
122
100
AcDbEntity
8
0
100
AcDbCircle
10
81.736605259659797
20
41.216354950356411
30
0
40
1.1499999999999999
210
0
220
0
230
1
0
LWPOLYLINE
5
123
100
AcDbEntity
8
0
100
AcDbPolyline
90
4
70
1
43
0.0
10
79.777712271416917
20
57.442016875652577
10
65.778412271416926
20
57.442016875652577
10
65.778412271416926
20
43.442716875652579
10
79.777712271416917
20
43.442716875652579
0
LWPOLYLINE
5
124
100
AcDbEntity
8
0
100
AcDbPolyline
90
4
70
1
43
0.0
10
27.678362271416947
20
71.730916875652582
10
27.678362271416947
20
57.73021687565258
10
41.677912271416943
20
57.73021687565258
10
41.677912271416943
20
71.730916875652582
0
LWPOLYLINE
5
125
100
AcDbEntity
8
0
100
AcDbPolyline
90
4
70
1
43
0.0
10
46.728412271416943
20
19.630016875652593
10
60.727712271416934
20
19.630016875652593
10
60.727712271416934
20
33.630916875652595
10
46.728412271416943
20
33.630916875652595
0
LWPOLYLINE
5
126
100
AcDbEntity
8
0
100
AcDbPolyline
90
4
70
1
43
0.0
10
46.728412271416943
20
57.73021687565258
10
60.727712271416934
20
57.73021687565258
10
60.727712271416934
20
71.730916875652582
10
46.728412271416943
20
71.730916875652582
0
LWPOLYLINE
5
127
100
AcDbEntity
8
0
100
AcDbPolyline
90
4
70
1
43
0.0
10
84.828412271416923
20
45.823916875652586
10
98.8277122714169
20
45.823916875652586
10
98.8277122714169
20
59.823216875652577
10
84.828412271416923
20
59.823216875652577
0
LWPOLYLINE
5
128
100
AcDbEntity
8
0
100
AcDbPolyline
90
4
70
1
43
0.0
10
65.778412271416926
20
38.297116875652584
10
65.778412271416926
20
24.297516875652594
10
79.777712271416917
20
24.297516875652594
10
79.777712271416917
20
38.297116875652584
0
CIRCLE
5
129
100
AcDbEntity
8
0
100
AcDbCircle
10
138.84789393678892
20
95.567413018463427
30
0
40
1.1499999999999999
210
0
220
0
230
1
0
LWPOLYLINE
5
130
100
AcDbEntity
8
0
100
AcDbPolyline
90
4
70
1
43
0.0
10
141.97871240481672
20
110.30844947193634
10
141.97677971189623
20
96.308749605342854
10
155.97577957849637
20
96.306817009059046
10
155.97771227141689
20
110.30651687565259
0
LWPOLYLINE
5
131
100
AcDbEntity
8
0
100
AcDbPolyline
90
4
70
1
43
0.0
10
155.97771227141689
20
77.256816875652575
10
155.97771227141689
20
91.256416875652576
10
141.9787122714169
20
91.256416875652576
10
141.9787122714169
20
77.256816875652575
0
LWPOLYLINE
5
132
100
AcDbEntity
8
0
100
AcDbPolyline
90
4
70
1
43
0.0
10
155.97771227141689
20
58.206816875652578
10
155.97771227141689
20
72.206416875652593
10
141.9787122714169
20
72.206416875652593
10
141.9787122714169
20
58.206816875652578
0
LWPOLYLINE
5
133
100
AcDbEntity
8
0
100
AcDbPolyline
90
4
70
1
43
0.0
10
46.728412271416943
20
76.78021687565257
10
60.727712271416934
20
76.78021687565257
10
60.727712271416934
20
90.780916875652565
10
46.728412271416943
20
90.780916875652565
0
LWPOLYLINE
5
134
100
AcDbEntity
8
0
100
AcDbPolyline
90
4
70
1
43
0.0
10
79.777712271416917
20
100.59271687565257
10
79.777712271416917
20
114.59151687565254
10
65.778412271416926
20
114.59151687565254
10
65.778412271416926
20
100.59271687565257
0
LWPOLYLINE
5
135
100
AcDbEntity
8
0
100
AcDbPolyline
90
4
70
1
43
0.0
10
65.778412271416926
20
95.542016875652564
10
65.778412271416926
20
81.542716875652559
10
79.777712271416917
20
81.542716875652559
10
79.777712271416917
20
95.542016875652564
0
LWPOLYLINE
5
136
100
AcDbEntity
8
0
100
AcDbPolyline
90
4
70
1
43
0.0
10
65.778412271416926
20
76.492016875652553
10
65.778412271416926
20
62.492716875652576
10
79.777712271416917
20
62.492716875652576
10
79.777712271416917
20
76.492016875652553
0
LWPOLYLINE
5
137
100
AcDbEntity
8
0
100
AcDbPolyline
90
4
70
1
43
0.0
10
41.677912271416943
20
109.83051687565256
10
27.678362271416947
20
109.83051687565256
10
27.678362271416947
20
95.830216875652567
10
41.677912271416943
20
95.830216875652567
0
CIRCLE
5
138
100
AcDbEntity
8
0
100
AcDbCircle
10
78.477887271416918
20
98.067366875652567
30
0
40
1.1499999999999999
210
0
220
0
230
1
0
LWPOLYLINE
5
139
100
AcDbEntity
8
0
100
AcDbPolyline
90
4
70
1
43
0.0
10
46.728412271416943
20
109.83051687565256
10
46.728412271416943
20
95.830216875652567
10
60.727712271416934
20
95.830216875652567
10
60.727712271416934
20
109.83051687565256
0
LWPOLYLINE
5
140
100
AcDbEntity
8
0
100
AcDbPolyline
90
4
70
1
43
0.0
10
27.678362271416947
20
90.780916875652565
10
27.678362271416947
20
76.78021687565257
10
41.677912271416943
20
76.78021687565257
10
41.677912271416943
20
90.780916875652565
0
CIRCLE
5
141
100
AcDbEntity
8
0
100
AcDbCircle
10
44.203162271416936
20
93.305566875652559
30
0
40
1.1499999999999999
210
0
220
0
230
1
0
LWPOLYLINE
5
142
100
AcDbEntity
8
0
100
AcDbPolyline
90
4
70
1
43
0.0
10
155.97771227141689
20
53.156416875652582
10
141.9787122714169
20
53.156416875652582
10
141.9787122714169
20
39.156816875652588
10
155.97771227141689
20
39.156816875652588
0
CIRCLE
5
143
100
AcDbEntity
8
0
100
AcDbCircle
10
144.54423207218389
20
32.255823872909026
30
0
40
1.1499999999999999
210
0
220
0
230
1
0
CIRCLE
5
144
100
AcDbEntity
8
0
100
AcDbCircle
10
139.45321227141693
20
56.633916875652588
30
0
40
1.1499999999999999
210
0
220
0
230
1
0
ENDSEC
0
SECTION
2
OBJECTS
0
DICTIONARY
5
C
100
AcDbDictionary
3
ACAD_GROUP
350
D
3
ACAD_MLINESTYLE
350
17
0
DICTIONARY
5
D
100
AcDbDictionary
0
DICTIONARY
5
1A
330
C
100
AcDbDictionary
0
DICTIONARY
5
17
100
AcDbDictionary
0
ENDSEC
0
EOF
