M48
INCH,TZ
T1C0.0472
T2C0.0670
T3C0.0748
T4C0.1339
T5C0.1378
T6C0.1570
%
G90
G05
T1
X27519Y-18402
X27519Y-25902
X27519Y-33402
X27519Y-40902
X27519Y-48403
X31592Y-18402
X31592Y-25902
X31592Y-33402
X31592Y-40902
X31592Y-48403
X35019Y-18402
X35019Y-25902
X35019Y-33402
X35019Y-40902
X35019Y-48403
X39092Y-18402
X39092Y-25902
X39092Y-33402
X39092Y-40902
X39092Y-48403
X42519Y-16527
X42519Y-24027
X42519Y-31527
X42519Y-39027
X42519Y-46528
X46592Y-16527
X46592Y-24027
X46592Y-31527
X46592Y-39027
X46592Y-46528
X50019Y-15590
X50019Y-23090
X50019Y-30590
X50019Y-38090
X50019Y-45590
X54092Y-15590
X54092Y-23090
X54092Y-30590
X54092Y-38090
X54092Y-45590
X57519Y-16527
X57519Y-24027
X57519Y-31527
X57519Y-39027
X57519Y-46528
X61592Y-16527
X61592Y-24027
X61592Y-31527
X61592Y-39027
X61592Y-46528
X65019Y-17465
X65019Y-24965
X65019Y-32465
X65019Y-39965
X67281Y-47838
X69092Y-17465
X69092Y-24965
X69092Y-32465
X69092Y-39965
X70780Y-15930
X70780Y-18686
X70808Y-49875
X72519Y-18214
X72519Y-25714
X72519Y-33214
X72519Y-40714
X73081Y-53521
X75117Y-49994
X76591Y-18214
X76591Y-25714
X76591Y-33214
X76591Y-40714
T2
X27537Y-20056
X27537Y-27556
X27537Y-35056
X27537Y-42556
X27537Y-50056
X31537Y-20056
X31537Y-27556
X31537Y-35056
X31537Y-42556
X31537Y-50056
X35037Y-20056
X35037Y-27556
X35037Y-35056
X35037Y-42556
X35037Y-50056
X39037Y-20056
X39037Y-27556
X39037Y-35056
X39037Y-42556
X39037Y-50056
X42537Y-18181
X42537Y-25681
X42537Y-33181
X42537Y-40681
X42537Y-48181
X46537Y-18181
X46537Y-25681
X46537Y-33181
X46537Y-40681
X46537Y-48181
X50037Y-17244
X50037Y-24744
X50037Y-32244
X50037Y-39744
X50037Y-47244
X54037Y-17244
X54037Y-24744
X54037Y-32244
X54037Y-39744
X54037Y-47244
X57537Y-18181
X57537Y-25681
X57537Y-33181
X57537Y-40681
X57537Y-48181
X61537Y-18181
X61537Y-25681
X61537Y-33181
X61537Y-40681
X61537Y-48181
X65037Y-19118
X65037Y-26618
X65037Y-34118
X65037Y-41618
X66469Y-49279
X69037Y-19118
X69037Y-26618
X69037Y-34118
X69037Y-41618
X69933Y-51279
X72536Y-19868
X72536Y-27368
X72536Y-34868
X72536Y-42368
X74522Y-54332
X76522Y-50868
X76536Y-19868
X76536Y-27368
X76536Y-34868
X76536Y-42368
T3
X27372Y-20056
X27372Y-27556
X27372Y-35056
X27372Y-42556
X27372Y-50056
X31702Y-20056
X31702Y-27556
X31702Y-35056
X31702Y-42556
X31702Y-50056
X34872Y-20056
X34872Y-27556
X34872Y-35056
X34872Y-42556
X34872Y-50056
X39202Y-20056
X39202Y-27556
X39202Y-35056
X39202Y-42556
X39202Y-50056
X42372Y-18181
X42372Y-25681
X42372Y-33181
X42372Y-40681
X42372Y-48181
X46702Y-18181
X46702Y-25681
X46702Y-33181
X46702Y-40681
X46702Y-48181
X49872Y-17244
X49872Y-24744
X49872Y-32244
X49872Y-39744
X49872Y-47244
X54202Y-17244
X54202Y-24744
X54202Y-32244
X54202Y-39744
X54202Y-47244
X57372Y-18181
X57372Y-25681
X57372Y-33181
X57372Y-40681
X57372Y-48181
X61702Y-18181
X61702Y-25681
X61702Y-33181
X61702Y-40681
X61702Y-48181
X64872Y-19118
X64872Y-26618
X64872Y-34118
X64872Y-41618
X66326Y-49196
X69202Y-19118
X69202Y-26618
X69202Y-34118
X69202Y-41618
X70077Y-51362
X72371Y-19868
X72371Y-27368
X72371Y-34868
X72371Y-42368
X74439Y-54475
X76604Y-50725
X76702Y-19868
X76702Y-27368
X76702Y-34868
X76702Y-42368
T4
X29537Y-20056
X29537Y-27556
X29537Y-35056
X29537Y-42556
X29537Y-50056
X37037Y-20056
X37037Y-27556
X37037Y-35056
X37037Y-42556
X37037Y-50056
X44537Y-18181
X44537Y-25681
X44537Y-33181
X44537Y-40681
X44537Y-48181
X52037Y-17244
X52037Y-24744
X52037Y-32244
X52037Y-39744
X52037Y-47244
X59537Y-18181
X59537Y-25681
X59537Y-33181
X59537Y-40681
X59537Y-48181
X67037Y-19118
X67037Y-26618
X67037Y-34118
X67037Y-41618
X68201Y-50279
X74536Y-19868
X74536Y-27368
X74536Y-34868
X74536Y-42368
X75522Y-52600
T5
X33287Y-23806
X33287Y-46306
X46781Y-21931
X48064Y-44313
X57293Y-21931
X64342Y-48051
X70549Y-22915
X70787Y-38244
X72791Y-47841
T6
X29537Y-20056
X29537Y-27556
X29537Y-35056
X29537Y-42556
X29537Y-50056
X37037Y-20056
X37037Y-27556
X37037Y-35056
X37037Y-42556
X37037Y-50056
X44537Y-18181
X44537Y-25681
X44537Y-33181
X44537Y-40681
X44537Y-48181
X52037Y-17244
X52037Y-24744
X52037Y-32244
X52037Y-39744
X52037Y-47244
X59537Y-18181
X59537Y-25681
X59537Y-33181
X59537Y-40681
X59537Y-48181
X67037Y-19118
X67037Y-26618
X67037Y-34118
X67037Y-41618
X68201Y-50279
X74536Y-19868
X74536Y-27368
X74536Y-34868
X74536Y-42368
X75522Y-52600
T0
M30
