G04 #@! TF.GenerationSoftware,KiCad,Pcbnew,(5.1.10)-1*
G04 #@! TF.CreationDate,2022-02-03T22:34:05+03:00*
G04 #@! TF.ProjectId,Kapl,4b61706c-2e6b-4696-9361-645f70636258,rev?*
G04 #@! TF.SameCoordinates,Original*
G04 #@! TF.FileFunction,Profile,NP*
%FSLAX46Y46*%
G04 Gerber Fmt 4.6, Leading zero omitted, Abs format (unit mm)*
G04 Created by KiCad (PCBNEW (5.1.10)-1) date 2022-02-03 22:34:05*
%MOMM*%
%LPD*%
G01*
G04 APERTURE LIST*
G04 #@! TA.AperFunction,Profile*
%ADD10C,0.150000*%
G04 #@! TD*
G04 #@! TA.AperFunction,Profile*
%ADD11C,0.200000*%
G04 #@! TD*
G04 APERTURE END LIST*
D10*
X133798300Y-78657240D02*
X133798300Y-74157240D01*
D11*
X160520908Y-132383645D02*
G75*
G02*
X162027854Y-132785654I6784J-2999992D01*
G01*
D10*
X190973300Y-47223240D02*
X190973300Y-42723240D01*
X152907300Y-42908240D02*
X152907300Y-38408240D01*
X114842476Y-62026895D02*
X114842476Y-57526895D01*
X133891300Y-97766240D02*
X133891300Y-93266240D01*
X172016300Y-45380240D02*
X172016300Y-40880240D01*
X76775300Y-123928240D02*
X76775300Y-119428240D01*
X133832300Y-116816240D02*
X133832300Y-112316240D01*
X184432854Y-131137463D02*
X188329968Y-133387463D01*
X176299063Y-125796746D02*
X178549063Y-121899632D01*
X133823300Y-55104240D02*
X130323300Y-55104240D01*
X95732300Y-119366240D02*
X92232300Y-119366240D01*
X191075300Y-66276240D02*
X191075300Y-61776240D01*
X114866300Y-42905240D02*
X114866300Y-38405240D01*
X152907300Y-61955240D02*
X152907300Y-57455240D01*
X133798300Y-74157240D02*
X130298300Y-74157240D01*
X76673300Y-85828240D02*
X76673300Y-81328240D01*
X133823300Y-59604240D02*
X133823300Y-55104240D01*
X171957300Y-83415240D02*
X171957300Y-78915240D01*
X152907300Y-57455240D02*
X149407300Y-57455240D01*
X133891300Y-93266240D02*
X130391300Y-93266240D01*
X133848700Y-40608040D02*
X133848700Y-36108040D01*
X114816300Y-119232240D02*
X114816300Y-114732240D01*
X114816300Y-100058240D02*
X114816300Y-95558240D01*
X95850300Y-47734240D02*
X95850300Y-43234240D01*
X191016300Y-104438240D02*
X191016300Y-99938240D01*
X133832300Y-112316240D02*
X130332300Y-112316240D01*
X114841300Y-76505240D02*
X111341300Y-76505240D01*
X95732300Y-100319240D02*
X92232300Y-100319240D01*
X95757300Y-81266240D02*
X92257300Y-81266240D01*
X190990500Y-80809040D02*
X187490500Y-80809040D01*
X152916300Y-114667240D02*
X149416300Y-114667240D01*
X171957300Y-78915240D02*
X168457300Y-78915240D01*
X178549063Y-121899632D02*
X175517975Y-120149632D01*
X171991300Y-64433240D02*
X171991300Y-59933240D01*
X114866300Y-38405240D02*
X111366300Y-38405240D01*
X114816300Y-114732240D02*
X111316300Y-114732240D01*
X172016300Y-40880240D02*
X168516300Y-40880240D01*
X76775300Y-119428240D02*
X73275300Y-119428240D01*
X152882300Y-81008240D02*
X152882300Y-76508240D01*
X114841300Y-81005240D02*
X114841300Y-76505240D01*
X171932300Y-102468240D02*
X171932300Y-97968240D01*
X95757300Y-85766240D02*
X95757300Y-81266240D01*
X152848300Y-100117240D02*
X152848300Y-95617240D01*
X76775300Y-100381240D02*
X73275300Y-100381240D01*
X171991300Y-59933240D02*
X168491300Y-59933240D01*
X171932300Y-97968240D02*
X168432300Y-97968240D01*
X95732300Y-104819240D02*
X95732300Y-100319240D01*
X76673300Y-81328240D02*
X73173300Y-81328240D01*
X152848300Y-95617240D02*
X149348300Y-95617240D01*
X191016300Y-99938240D02*
X187516300Y-99938240D01*
X76707300Y-66719240D02*
X76707300Y-62219240D01*
X76775300Y-104881240D02*
X76775300Y-100381240D01*
X190990500Y-85309040D02*
X190990500Y-80809040D01*
X95732300Y-123866240D02*
X95732300Y-119366240D01*
X190973300Y-42723240D02*
X187473300Y-42723240D01*
X152916300Y-119167240D02*
X152916300Y-114667240D01*
X149407300Y-42908240D02*
X152907300Y-42908240D01*
X168516300Y-40880240D02*
X168516300Y-45380240D01*
X149382300Y-81008240D02*
X152882300Y-81008240D01*
X187516300Y-99938240D02*
X187516300Y-104438240D01*
X111316300Y-100058240D02*
X114816300Y-100058240D01*
X92232300Y-104819240D02*
X95732300Y-104819240D01*
X73173300Y-81328240D02*
X73173300Y-85828240D01*
X168491300Y-64433240D02*
X171991300Y-64433240D01*
X187516300Y-104438240D02*
X191016300Y-104438240D01*
X92232300Y-119366240D02*
X92232300Y-123866240D01*
X130298300Y-78657240D02*
X133798300Y-78657240D01*
X111366300Y-42905240D02*
X114866300Y-42905240D01*
X149407300Y-57455240D02*
X149407300Y-61955240D01*
X187473300Y-47223240D02*
X190973300Y-47223240D01*
X73207300Y-62219240D02*
X73207300Y-66719240D01*
X73207300Y-66719240D02*
X76707300Y-66719240D01*
X149407300Y-61955240D02*
X152907300Y-61955240D01*
X190079968Y-130356375D02*
X186182854Y-128106375D01*
X111342476Y-57526895D02*
X111342476Y-62026895D01*
X149407300Y-38408240D02*
X149407300Y-42908240D01*
X130348700Y-36108040D02*
X130348700Y-40608040D01*
X187490500Y-80809040D02*
X187490500Y-85309040D01*
X149416300Y-114667240D02*
X149416300Y-119167240D01*
X168457300Y-78915240D02*
X168457300Y-83415240D01*
X175517975Y-120149632D02*
X173267975Y-124046746D01*
X111316300Y-114732240D02*
X111316300Y-119232240D01*
X130332300Y-112316240D02*
X130332300Y-116816240D01*
X186182854Y-128106375D02*
X184432854Y-131137463D01*
X111342476Y-62026895D02*
X114842476Y-62026895D01*
X130348700Y-40608040D02*
X133848700Y-40608040D01*
X111316300Y-95558240D02*
X111316300Y-100058240D01*
X111341300Y-76505240D02*
X111341300Y-81005240D01*
X130323300Y-55104240D02*
X130323300Y-59604240D01*
X92257300Y-81266240D02*
X92257300Y-85766240D01*
X187473300Y-42723240D02*
X187473300Y-47223240D01*
X168432300Y-97968240D02*
X168432300Y-102468240D01*
X149348300Y-95617240D02*
X149348300Y-100117240D01*
X130391300Y-93266240D02*
X130391300Y-97766240D01*
X73275300Y-100381240D02*
X73275300Y-104881240D01*
X92350300Y-47734240D02*
X95850300Y-47734240D01*
X149382300Y-76508240D02*
X149382300Y-81008240D01*
X92350300Y-43234240D02*
X92350300Y-47734240D01*
X187575300Y-66276240D02*
X191075300Y-66276240D01*
X187575300Y-61776240D02*
X187575300Y-66276240D01*
X168491300Y-59933240D02*
X168491300Y-64433240D01*
X130298300Y-74157240D02*
X130298300Y-78657240D01*
X92232300Y-100319240D02*
X92232300Y-104819240D01*
X111366300Y-38405240D02*
X111366300Y-42905240D01*
X73275300Y-119428240D02*
X73275300Y-123928240D01*
X188329968Y-133387463D02*
X190079968Y-130356375D01*
X168432300Y-102468240D02*
X171932300Y-102468240D01*
X114842476Y-57526895D02*
X111342476Y-57526895D01*
X168516300Y-45380240D02*
X172016300Y-45380240D01*
X133848700Y-36108040D02*
X130348700Y-36108040D01*
X111341300Y-81005240D02*
X114841300Y-81005240D01*
X130323300Y-59604240D02*
X133823300Y-59604240D01*
X73275300Y-123928240D02*
X76775300Y-123928240D01*
X73275300Y-104881240D02*
X76775300Y-104881240D01*
X76707300Y-62219240D02*
X73207300Y-62219240D01*
X149416300Y-119167240D02*
X152916300Y-119167240D01*
X152907300Y-38408240D02*
X149407300Y-38408240D01*
X173267975Y-124046746D02*
X176299063Y-125796746D01*
X191075300Y-61776240D02*
X187575300Y-61776240D01*
X130391300Y-97766240D02*
X133891300Y-97766240D01*
X149348300Y-100117240D02*
X152848300Y-100117240D01*
X168457300Y-83415240D02*
X171957300Y-83415240D01*
X92232300Y-123866240D02*
X95732300Y-123866240D01*
X95850300Y-43234240D02*
X92350300Y-43234240D01*
X111316300Y-119232240D02*
X114816300Y-119232240D01*
X92257300Y-85766240D02*
X95757300Y-85766240D01*
X130332300Y-116816240D02*
X133832300Y-116816240D01*
X114816300Y-95558240D02*
X111316300Y-95558240D01*
X73173300Y-85828240D02*
X76673300Y-85828240D01*
X187490500Y-85309040D02*
X190990500Y-85309040D01*
X152882300Y-76508240D02*
X149382300Y-76508240D01*
X92316300Y-62284240D02*
X92316300Y-66784240D01*
X92316300Y-66784240D02*
X95816300Y-66784240D01*
X95816300Y-62284240D02*
X92316300Y-62284240D01*
X95816300Y-66784240D02*
X95816300Y-62284240D01*
X76715500Y-47677440D02*
X76715500Y-43177440D01*
X76715500Y-43177440D02*
X73215500Y-43177440D01*
X73215500Y-47677440D02*
X76715500Y-47677440D01*
X73215500Y-43177440D02*
X73215500Y-47677440D01*
D11*
X124801985Y-33822162D02*
G75*
G02*
X125174050Y-33799000I372065J-2976838D01*
G01*
X196670966Y-40486207D02*
X139520966Y-33819207D01*
X204983846Y-124815331D02*
G75*
G02*
X206081746Y-128913449I-1500114J-2598011D01*
G01*
X194889667Y-148296856D02*
G75*
G02*
X190791491Y-149394733I-2598015J1500106D01*
G01*
X196670966Y-40486208D02*
G75*
G02*
X199323350Y-43466414I-347616J-2979792D01*
G01*
X194889667Y-148296857D02*
X206081746Y-128913449D01*
X101787273Y-137056314D02*
G75*
G02*
X101073350Y-137142500I-713923J2913814D01*
G01*
X120140439Y-132559547D02*
G75*
G02*
X120847577Y-132473369I713923J-2913815D01*
G01*
X204983845Y-124815331D02*
X200812697Y-122406875D01*
X65023999Y-43942001D02*
G75*
G02*
X67651934Y-40965161I3000001J1D01*
G01*
X139173350Y-33798999D02*
G75*
G02*
X139520966Y-33819207I0J-3000001D01*
G01*
X162027854Y-132785654D02*
X190791491Y-149394733D01*
X65024000Y-43942000D02*
X65024000Y-134142500D01*
X120847577Y-132473369D02*
X160520907Y-132383645D01*
X101787273Y-137056314D02*
X120140439Y-132559547D01*
X68024000Y-137142500D02*
X101073350Y-137142500D01*
X124801984Y-33822161D02*
X67651934Y-40965161D01*
X199312811Y-119808450D02*
X199323350Y-43466414D01*
X139173350Y-33799000D02*
X125174050Y-33799000D01*
X200812698Y-122406875D02*
G75*
G02*
X199312811Y-119808450I1500113J2598011D01*
G01*
X68024000Y-137142500D02*
G75*
G02*
X65024000Y-134142500I0J3000000D01*
G01*
M02*
