G04 #@! TF.GenerationSoftware,KiCad,Pcbnew,(5.1.10)-1*
G04 #@! TF.CreationDate,2022-02-03T22:34:05+03:00*
G04 #@! TF.ProjectId,Kapl,4b61706c-2e6b-4696-9361-645f70636258,rev?*
G04 #@! TF.SameCoordinates,Original*
G04 #@! TF.FileFunction,Legend,Top*
G04 #@! TF.FilePolarity,Positive*
%FSLAX46Y46*%
G04 Gerber Fmt 4.6, Leading zero omitted, Abs format (unit mm)*
G04 Created by KiCad (PCBNEW (5.1.10)-1) date 2022-02-03 22:34:05*
%MOMM*%
%LPD*%
G01*
G04 APERTURE LIST*
%ADD10C,0.125000*%
%ADD11C,0.150000*%
%ADD12C,0.500000*%
%ADD13C,0.120000*%
G04 APERTURE END LIST*
D10*
X103544945Y-132303780D02*
X103544945Y-131303780D01*
X104116373Y-132303780D02*
X103687802Y-131732352D01*
X104116373Y-131303780D02*
X103544945Y-131875209D01*
X104973516Y-132303780D02*
X104973516Y-131779971D01*
X104925897Y-131684733D01*
X104830659Y-131637114D01*
X104640183Y-131637114D01*
X104544945Y-131684733D01*
X104973516Y-132256161D02*
X104878278Y-132303780D01*
X104640183Y-132303780D01*
X104544945Y-132256161D01*
X104497326Y-132160923D01*
X104497326Y-132065685D01*
X104544945Y-131970447D01*
X104640183Y-131922828D01*
X104878278Y-131922828D01*
X104973516Y-131875209D01*
X105449707Y-131637114D02*
X105449707Y-132637114D01*
X105449707Y-131684733D02*
X105544945Y-131637114D01*
X105735421Y-131637114D01*
X105830659Y-131684733D01*
X105878278Y-131732352D01*
X105925897Y-131827590D01*
X105925897Y-132113304D01*
X105878278Y-132208542D01*
X105830659Y-132256161D01*
X105735421Y-132303780D01*
X105544945Y-132303780D01*
X105449707Y-132256161D01*
X106497326Y-132303780D02*
X106402088Y-132256161D01*
X106354469Y-132160923D01*
X106354469Y-131303780D01*
X107544945Y-131637114D02*
X107783040Y-132303780D01*
X108021135Y-131637114D01*
X108925897Y-132303780D02*
X108354469Y-132303780D01*
X108640183Y-132303780D02*
X108640183Y-131303780D01*
X108544945Y-131446638D01*
X108449707Y-131541876D01*
X108354469Y-131589495D01*
X109354469Y-132208542D02*
X109402088Y-132256161D01*
X109354469Y-132303780D01*
X109306850Y-132256161D01*
X109354469Y-132208542D01*
X109354469Y-132303780D01*
X110021135Y-131303780D02*
X110116373Y-131303780D01*
X110211611Y-131351400D01*
X110259230Y-131399019D01*
X110306850Y-131494257D01*
X110354469Y-131684733D01*
X110354469Y-131922828D01*
X110306850Y-132113304D01*
X110259230Y-132208542D01*
X110211611Y-132256161D01*
X110116373Y-132303780D01*
X110021135Y-132303780D01*
X109925897Y-132256161D01*
X109878278Y-132208542D01*
X109830659Y-132113304D01*
X109783040Y-131922828D01*
X109783040Y-131684733D01*
X109830659Y-131494257D01*
X109878278Y-131399019D01*
X109925897Y-131351400D01*
X110021135Y-131303780D01*
D11*
X132671200Y-53455800D02*
X132671200Y-52055800D01*
X131771200Y-52055800D02*
X132671200Y-52755800D01*
X131771200Y-53455800D02*
X131771200Y-52055800D01*
X132671200Y-52755800D02*
X131771200Y-53455800D01*
X196668404Y-126813518D02*
X197368404Y-125601082D01*
X196588981Y-125151082D02*
X197018404Y-126207300D01*
X195888981Y-126363518D02*
X196588981Y-125151082D01*
X197018404Y-126207300D02*
X195888981Y-126363518D01*
X170123000Y-115254000D02*
X170123000Y-113854000D01*
X169223000Y-113854000D02*
X170123000Y-114554000D01*
X169223000Y-115254000D02*
X169223000Y-113854000D01*
X170123000Y-114554000D02*
X169223000Y-115254000D01*
X141159000Y-122816000D02*
X142559000Y-122816000D01*
X142559000Y-121916000D02*
X141859000Y-122816000D01*
X141159000Y-121916000D02*
X142559000Y-121916000D01*
X141859000Y-122816000D02*
X141159000Y-121916000D01*
X122109000Y-121825400D02*
X123509000Y-121825400D01*
X123509000Y-120925400D02*
X122809000Y-121825400D01*
X122109000Y-120925400D02*
X123509000Y-120925400D01*
X122809000Y-121825400D02*
X122109000Y-120925400D01*
X102932000Y-122816000D02*
X104332000Y-122816000D01*
X104332000Y-121916000D02*
X103632000Y-122816000D01*
X102932000Y-121916000D02*
X104332000Y-121916000D01*
X103632000Y-122816000D02*
X102932000Y-121916000D01*
X85279000Y-127642000D02*
X86679000Y-127642000D01*
X86679000Y-126742000D02*
X85979000Y-127642000D01*
X85279000Y-126742000D02*
X86679000Y-126742000D01*
X85979000Y-127642000D02*
X85279000Y-126742000D01*
X82485000Y-127642000D02*
X83885000Y-127642000D01*
X83885000Y-126742000D02*
X83185000Y-127642000D01*
X82485000Y-126742000D02*
X83885000Y-126742000D01*
X83185000Y-127642000D02*
X82485000Y-126742000D01*
X179132000Y-107957000D02*
X180532000Y-107957000D01*
X180532000Y-107057000D02*
X179832000Y-107957000D01*
X179132000Y-107057000D02*
X180532000Y-107057000D01*
X179832000Y-107957000D02*
X179132000Y-107057000D01*
X160336000Y-106179000D02*
X161736000Y-106179000D01*
X161736000Y-105279000D02*
X161036000Y-106179000D01*
X160336000Y-105279000D02*
X161736000Y-105279000D01*
X161036000Y-106179000D02*
X160336000Y-105279000D01*
X141032000Y-103512000D02*
X142432000Y-103512000D01*
X142432000Y-102612000D02*
X141732000Y-103512000D01*
X141032000Y-102612000D02*
X142432000Y-102612000D01*
X141732000Y-103512000D02*
X141032000Y-102612000D01*
X121855000Y-101353000D02*
X123255000Y-101353000D01*
X123255000Y-100453000D02*
X122555000Y-101353000D01*
X121855000Y-100453000D02*
X123255000Y-100453000D01*
X122555000Y-101353000D02*
X121855000Y-100453000D01*
X103059000Y-104020000D02*
X104459000Y-104020000D01*
X104459000Y-103120000D02*
X103759000Y-104020000D01*
X103059000Y-103120000D02*
X104459000Y-103120000D01*
X103759000Y-104020000D02*
X103059000Y-103120000D01*
X85279000Y-108465000D02*
X86679000Y-108465000D01*
X86679000Y-107565000D02*
X85979000Y-108465000D01*
X85279000Y-107565000D02*
X86679000Y-107565000D01*
X85979000Y-108465000D02*
X85279000Y-107565000D01*
X82485000Y-108465000D02*
X83885000Y-108465000D01*
X83885000Y-107565000D02*
X83185000Y-108465000D01*
X82485000Y-107565000D02*
X83885000Y-107565000D01*
X83185000Y-108465000D02*
X82485000Y-107565000D01*
X179259000Y-88780000D02*
X180659000Y-88780000D01*
X180659000Y-87880000D02*
X179959000Y-88780000D01*
X179259000Y-87880000D02*
X180659000Y-87880000D01*
X179959000Y-88780000D02*
X179259000Y-87880000D01*
X160209000Y-87032300D02*
X161609000Y-87032300D01*
X161609000Y-86132300D02*
X160909000Y-87032300D01*
X160209000Y-86132300D02*
X161609000Y-86132300D01*
X160909000Y-87032300D02*
X160209000Y-86132300D01*
X141238000Y-84462000D02*
X142638000Y-84462000D01*
X142638000Y-83562000D02*
X141938000Y-84462000D01*
X141238000Y-83562000D02*
X142638000Y-83562000D01*
X141938000Y-84462000D02*
X141238000Y-83562000D01*
X122109000Y-82176000D02*
X123509000Y-82176000D01*
X123509000Y-81276000D02*
X122809000Y-82176000D01*
X122109000Y-81276000D02*
X123509000Y-81276000D01*
X122809000Y-82176000D02*
X122109000Y-81276000D01*
X103059000Y-84843000D02*
X104459000Y-84843000D01*
X104459000Y-83943000D02*
X103759000Y-84843000D01*
X103059000Y-83943000D02*
X104459000Y-83943000D01*
X103759000Y-84843000D02*
X103059000Y-83943000D01*
X85279000Y-89415000D02*
X86679000Y-89415000D01*
X86679000Y-88515000D02*
X85979000Y-89415000D01*
X85279000Y-88515000D02*
X86679000Y-88515000D01*
X85979000Y-89415000D02*
X85279000Y-88515000D01*
X82485000Y-89415000D02*
X83885000Y-89415000D01*
X83885000Y-88515000D02*
X83185000Y-89415000D01*
X82485000Y-88515000D02*
X83885000Y-88515000D01*
X83185000Y-89415000D02*
X82485000Y-88515000D01*
X180529000Y-69984000D02*
X181929000Y-69984000D01*
X181929000Y-69084000D02*
X181229000Y-69984000D01*
X180529000Y-69084000D02*
X181929000Y-69084000D01*
X181229000Y-69984000D02*
X180529000Y-69084000D01*
X177735000Y-67952000D02*
X179135000Y-67952000D01*
X179135000Y-67052000D02*
X178435000Y-67952000D01*
X177735000Y-67052000D02*
X179135000Y-67052000D01*
X178435000Y-67952000D02*
X177735000Y-67052000D01*
X159955000Y-66555000D02*
X161355000Y-66555000D01*
X161355000Y-65655000D02*
X160655000Y-66555000D01*
X159955000Y-65655000D02*
X161355000Y-65655000D01*
X160655000Y-66555000D02*
X159955000Y-65655000D01*
X113443400Y-74766400D02*
X113443400Y-73366400D01*
X112543400Y-73366400D02*
X113443400Y-74066400D01*
X112543400Y-74766400D02*
X112543400Y-73366400D01*
X113443400Y-74066400D02*
X112543400Y-74766400D01*
X103186000Y-65666000D02*
X104586000Y-65666000D01*
X104586000Y-64766000D02*
X103886000Y-65666000D01*
X103186000Y-64766000D02*
X104586000Y-64766000D01*
X103886000Y-65666000D02*
X103186000Y-64766000D01*
X85281540Y-70619000D02*
X86681540Y-70619000D01*
X86681540Y-69719000D02*
X85981540Y-70619000D01*
X85281540Y-69719000D02*
X86681540Y-69719000D01*
X85981540Y-70619000D02*
X85281540Y-69719000D01*
X82485000Y-70619000D02*
X83885000Y-70619000D01*
X83885000Y-69719000D02*
X83185000Y-70619000D01*
X82485000Y-69719000D02*
X83885000Y-69719000D01*
X83185000Y-70619000D02*
X82485000Y-69719000D01*
X170618800Y-58177660D02*
X170618800Y-56777660D01*
X169718800Y-56777660D02*
X170618800Y-57477660D01*
X169718800Y-58177660D02*
X169718800Y-56777660D01*
X170618800Y-57477660D02*
X169718800Y-58177660D01*
X161479000Y-46743000D02*
X162879000Y-46743000D01*
X162879000Y-45843000D02*
X162179000Y-46743000D01*
X161479000Y-45843000D02*
X162879000Y-45843000D01*
X162179000Y-46743000D02*
X161479000Y-45843000D01*
X158685000Y-46743000D02*
X160085000Y-46743000D01*
X160085000Y-45843000D02*
X159385000Y-46743000D01*
X158685000Y-45843000D02*
X160085000Y-45843000D01*
X159385000Y-46743000D02*
X158685000Y-45843000D01*
X102932000Y-46870000D02*
X104332000Y-46870000D01*
X104332000Y-45970000D02*
X103632000Y-46870000D01*
X102932000Y-45970000D02*
X104332000Y-45970000D01*
X103632000Y-46870000D02*
X102932000Y-45970000D01*
X85279000Y-51442000D02*
X86679000Y-51442000D01*
X86679000Y-50542000D02*
X85979000Y-51442000D01*
X85279000Y-50542000D02*
X86679000Y-50542000D01*
X85979000Y-51442000D02*
X85279000Y-50542000D01*
X82485000Y-51442000D02*
X83885000Y-51442000D01*
X83885000Y-50542000D02*
X83185000Y-51442000D01*
X82485000Y-50542000D02*
X83885000Y-50542000D01*
X83185000Y-51442000D02*
X82485000Y-50542000D01*
D12*
X186889870Y-121516693D02*
G75*
G03*
X186889870Y-121516693I-2000000J0D01*
G01*
X86548800Y-117616950D02*
G75*
G03*
X86548800Y-117616950I-2000000J0D01*
G01*
X181193531Y-58205103D02*
G75*
G03*
X181193531Y-58205103I-2000000J0D01*
G01*
X165429739Y-122049778D02*
G75*
G03*
X165429739Y-122049778I-2000000J0D01*
G01*
X147523875Y-55705150D02*
G75*
G03*
X147523875Y-55705150I-2000000J0D01*
G01*
X181798850Y-97138600D02*
G75*
G03*
X181798850Y-97138600I-2000000J0D01*
G01*
X120823525Y-55705150D02*
G75*
G03*
X120823525Y-55705150I-2000000J0D01*
G01*
X124082243Y-112556162D02*
G75*
G03*
X124082243Y-112556162I-2000000J0D01*
G01*
X86548800Y-60466950D02*
G75*
G03*
X86548800Y-60466950I-2000000J0D01*
G01*
D13*
X125722225Y-42722800D02*
G75*
G03*
X125722225Y-42722800I-152400J0D01*
G01*
X125722225Y-45262800D02*
G75*
G03*
X125722225Y-45262800I-152400J0D01*
G01*
X138930225Y-40081200D02*
G75*
G03*
X138930225Y-40081200I-152400J0D01*
G01*
D11*
X184761139Y-131748349D02*
G75*
G03*
X184761139Y-131748349I-250000J0D01*
G01*
X177159949Y-125718461D02*
G75*
G03*
X177159949Y-125718461I-250000J0D01*
G01*
X153656200Y-118794000D02*
G75*
G03*
X153656200Y-118794000I-250000J0D01*
G01*
X134572200Y-116443000D02*
G75*
G03*
X134572200Y-116443000I-250000J0D01*
G01*
X115556200Y-118859000D02*
G75*
G03*
X115556200Y-118859000I-250000J0D01*
G01*
X96472200Y-123493000D02*
G75*
G03*
X96472200Y-123493000I-250000J0D01*
G01*
X77515200Y-123555000D02*
G75*
G03*
X77515200Y-123555000I-250000J0D01*
G01*
X191756200Y-104065000D02*
G75*
G03*
X191756200Y-104065000I-250000J0D01*
G01*
X172672200Y-102095000D02*
G75*
G03*
X172672200Y-102095000I-250000J0D01*
G01*
X153588200Y-99744000D02*
G75*
G03*
X153588200Y-99744000I-250000J0D01*
G01*
X134631200Y-97393000D02*
G75*
G03*
X134631200Y-97393000I-250000J0D01*
G01*
X115556200Y-99685000D02*
G75*
G03*
X115556200Y-99685000I-250000J0D01*
G01*
X96472200Y-104446000D02*
G75*
G03*
X96472200Y-104446000I-250000J0D01*
G01*
X77515200Y-104508000D02*
G75*
G03*
X77515200Y-104508000I-250000J0D01*
G01*
X191730400Y-84935800D02*
G75*
G03*
X191730400Y-84935800I-250000J0D01*
G01*
X172697200Y-83042000D02*
G75*
G03*
X172697200Y-83042000I-250000J0D01*
G01*
X153622200Y-80635000D02*
G75*
G03*
X153622200Y-80635000I-250000J0D01*
G01*
X134538200Y-78284000D02*
G75*
G03*
X134538200Y-78284000I-250000J0D01*
G01*
X115581200Y-80632000D02*
G75*
G03*
X115581200Y-80632000I-250000J0D01*
G01*
X96497200Y-85393000D02*
G75*
G03*
X96497200Y-85393000I-250000J0D01*
G01*
X77413200Y-85455000D02*
G75*
G03*
X77413200Y-85455000I-250000J0D01*
G01*
X191815200Y-65903000D02*
G75*
G03*
X191815200Y-65903000I-250000J0D01*
G01*
X172731200Y-64060000D02*
G75*
G03*
X172731200Y-64060000I-250000J0D01*
G01*
X153647200Y-61582000D02*
G75*
G03*
X153647200Y-61582000I-250000J0D01*
G01*
X134563200Y-59231000D02*
G75*
G03*
X134563200Y-59231000I-250000J0D01*
G01*
X115582376Y-61653655D02*
G75*
G03*
X115582376Y-61653655I-250000J0D01*
G01*
X96556200Y-66411000D02*
G75*
G03*
X96556200Y-66411000I-250000J0D01*
G01*
X77447200Y-66346000D02*
G75*
G03*
X77447200Y-66346000I-250000J0D01*
G01*
X191713200Y-46850000D02*
G75*
G03*
X191713200Y-46850000I-250000J0D01*
G01*
X172756200Y-45007000D02*
G75*
G03*
X172756200Y-45007000I-250000J0D01*
G01*
X153647200Y-42535000D02*
G75*
G03*
X153647200Y-42535000I-250000J0D01*
G01*
X134588600Y-40234800D02*
G75*
G03*
X134588600Y-40234800I-250000J0D01*
G01*
X115606200Y-42532000D02*
G75*
G03*
X115606200Y-42532000I-250000J0D01*
G01*
X96590200Y-47361000D02*
G75*
G03*
X96590200Y-47361000I-250000J0D01*
G01*
X77455400Y-47304200D02*
G75*
G03*
X77455400Y-47304200I-250000J0D01*
G01*
X153886700Y-110975550D02*
G75*
G03*
X153886700Y-110975550I-250000J0D01*
G01*
X115786700Y-111023000D02*
G75*
G03*
X115786700Y-111023000I-250000J0D01*
G01*
X77686775Y-115737350D02*
G75*
G03*
X77686775Y-115737350I-250000J0D01*
G01*
X77686775Y-58587350D02*
G75*
G03*
X77686775Y-58587350I-250000J0D01*
G01*
X115786700Y-53825550D02*
G75*
G03*
X115786700Y-53825550I-250000J0D01*
G01*
X153886700Y-53825550D02*
G75*
G03*
X153886700Y-53825550I-250000J0D01*
G01*
X191985883Y-58111300D02*
G75*
G03*
X191985883Y-58111300I-250000J0D01*
G01*
X191986850Y-96211300D02*
G75*
G03*
X191986850Y-96211300I-250000J0D01*
G01*
X181387484Y-116316183D02*
G75*
G03*
X181387484Y-116316183I-250000J0D01*
G01*
M02*
