M48
INCH,TZ
T1C0.0157
T2C0.0394
T3C0.0472
T4C0.0512
T5C0.0590
T6C0.0596
T7C0.0669
%
G90
G05
T1
X26210Y-31531
X26210Y-45150
X26456Y-30610
X27000Y-17540
X27220Y-22870
X27480Y-24350
X27500Y-40100
X27530Y-47130
X27970Y-32040
X28050Y-26140
X28101Y-17915
X28103Y-32915
X28117Y-25392
X28143Y-40417
X28143Y-47915
X28147Y-23806
X28260Y-19910
X29160Y-46030
X29460Y-23780
X30037Y-46306
X30340Y-41620
X30440Y-31490
X30470Y-16240
X30470Y-38950
X30897Y-25392
X30900Y-32930
X30908Y-17888
X30924Y-40417
X30924Y-47915
X30927Y-46306
X30927Y-23806
X31050Y-24140
X31120Y-32550
X31186Y-18251
X31230Y-25210
X31290Y-40190
X31360Y-47590
X31540Y-46020
X32250Y-22780
X33320Y-20200
X33340Y-27630
X33350Y-30470
X34060Y-45680
X34980Y-32760
X34990Y-47750
X35000Y-22770
X35360Y-39500
X35410Y-24510
X35550Y-18720
X35560Y-26280
X35570Y-41290
X35599Y-40399
X35607Y-47891
X35617Y-32891
X35640Y-25418
X35653Y-17918
X35690Y-33740
X35810Y-49760
X35880Y-20220
X35990Y-19197
X37590Y-15350
X37960Y-38950
X37970Y-24130
X38020Y-46330
X38060Y-31560
X38336Y-31376
X38387Y-40392
X38387Y-47891
X38397Y-32891
X38420Y-25418
X38462Y-17886
X38520Y-49390
X38660Y-18300
X38688Y-48248
X38695Y-32992
X38700Y-40030
X38710Y-45050
X38720Y-25100
X38960Y-22720
X39670Y-39700
X39740Y-19270
X39740Y-53460
X40570Y-21670
X40940Y-45310
X41624Y-20790
X41730Y-19010
X41730Y-50610
X42116Y-29435
X42320Y-28270
X42480Y-15920
X42590Y-22700
X42640Y-20701
X42650Y-45190
X42750Y-30630
X42850Y-37990
X42950Y-46910
X42970Y-24390
X43040Y-39420
X43047Y-20917
X43118Y-46064
X43120Y-38518
X43130Y-31017
X43131Y-23545
X43133Y-44463
X43140Y-16017
X43147Y-21931
X43320Y-17830
X43370Y-47890
X43390Y-40740
X44970Y-21700
X44990Y-44450
X45440Y-36960
X45470Y-14350
X45700Y-29980
X45840Y-25050
X45900Y-38518
X45911Y-23545
X45920Y-16017
X45924Y-46041
X45940Y-31040
X45947Y-44470
X46000Y-17620
X46025Y-21286
X46060Y-45700
X46150Y-38180
X46168Y-23938
X46179Y-16397
X46197Y-31350
X46280Y-20470
X46340Y-15130
X46680Y-30540
X46740Y-44530
X46840Y-23200
X46858Y-14394
X46960Y-50510
X46990Y-26420
X47380Y-17480
X47419Y-18400
X47460Y-35520
X47820Y-29050
X47860Y-20650
X47950Y-28062
X48040Y-18810
X48260Y-22140
X48360Y-24470
X48440Y-23610
X48450Y-21660
X48463Y-25598
X48484Y-22573
X48690Y-26660
X48710Y-27980
X48780Y-42740
X48888Y-46412
X49264Y-19600
X49470Y-16640
X49640Y-23990
X49800Y-19650
X49820Y-49870
X49870Y-28819
X49950Y-42670
X50010Y-44880
X50230Y-14660
X50240Y-29650
X50350Y-22180
X50370Y-36840
X50593Y-30092
X50603Y-22591
X50607Y-45115
X50613Y-15112
X50630Y-37615
X50740Y-46426
X50824Y-16394
X50840Y-31466
X50910Y-17510
X50960Y-46880
X53000Y-36180
X53190Y-17520
X53260Y-31800
X53290Y-23910
X53330Y-46810
X53383Y-30083
X53383Y-22591
X53393Y-15112
X53397Y-45106
X53410Y-37615
X53480Y-50010
X53620Y-30430
X53630Y-22950
X53640Y-45480
X53670Y-15480
X53800Y-37310
X54000Y-13840
X54040Y-27100
X54240Y-16440
X54260Y-19660
X54290Y-42680
X54310Y-30080
X54310Y-42160
X54350Y-18040
X54560Y-23510
X54580Y-25590
X54650Y-20620
X54650Y-21590
X54759Y-24617
X54770Y-44040
X54770Y-51530
X54828Y-22567
X54950Y-26680
X55060Y-28980
X55100Y-37290
X55310Y-40580
X55560Y-29590
X55580Y-43030
X55590Y-24540
X55611Y-25550
X55699Y-23651
X55840Y-44740
X55870Y-15570
X55890Y-14540
X55990Y-17280
X56010Y-28860
X56125Y-22520
X56140Y-37230
X56260Y-20878
X56289Y-29590
X56366Y-16800
X56410Y-22880
X56550Y-21370
X56900Y-43150
X56950Y-24900
X57000Y-41540
X57280Y-44620
X57310Y-30920
X57480Y-14610
X57530Y-24920
X57540Y-45940
X57560Y-15870
X57570Y-37990
X57700Y-43000
X57840Y-22830
X58040Y-14500
X58050Y-39460
X58064Y-44016
X58092Y-38540
X58103Y-31021
X58117Y-23517
X58117Y-16018
X58120Y-46041
X58290Y-47640
X58684Y-14942
X58940Y-43417
X59037Y-21931
X59340Y-49490
X59460Y-44790
X60037Y-44431
X60120Y-29675
X60480Y-14500
X60500Y-43520
X60640Y-29610
X60840Y-24670
X60889Y-38526
X60890Y-31020
X60897Y-16018
X60897Y-23517
X60900Y-46041
X60927Y-44431
X60927Y-21931
X61120Y-31380
X61130Y-16420
X61173Y-46418
X61220Y-38200
X61222Y-23180
X61231Y-22269
X61400Y-20470
X61570Y-14920
X61790Y-15860
X61870Y-17440
X62170Y-28220
X62310Y-26420
X62840Y-22250
X62869Y-29511
X62950Y-45690
X63180Y-29250
X63860Y-28790
X64616Y-22905
X64950Y-21680
X64980Y-31100
X65010Y-43940
X65050Y-24000
X65060Y-15400
X65070Y-28910
X65070Y-39380
X65170Y-16670
X65484Y-48400
X65600Y-39460
X65617Y-31965
X65625Y-17006
X65630Y-24492
X65700Y-25820
X65830Y-18270
X65890Y-46400
X65950Y-18820
X65970Y-37545
X67590Y-48560
X67940Y-38120
X67970Y-15390
X68022Y-47614
X68040Y-30625
X68260Y-19020
X68350Y-26810
X68387Y-39467
X68397Y-31965
X68416Y-24487
X68420Y-16991
X68480Y-31620
X68530Y-24870
X68620Y-46570
X68660Y-17437
X68710Y-30660
X68850Y-18020
X68860Y-39140
X68930Y-16430
X69320Y-50840
X69458Y-22980
X69660Y-21310
X69864Y-46534
X69950Y-44770
X69980Y-29858
X70100Y-38950
X70220Y-39870
X70310Y-49770
X70380Y-31900
X70470Y-49140
X70710Y-21460
X70820Y-17070
X70830Y-17770
X70910Y-27360
X71210Y-20990
X71520Y-24150
X71786Y-46569
X72130Y-46810
X72430Y-56600
X72440Y-29670
X72530Y-45980
X72530Y-52590
X72570Y-32490
X72610Y-17370
X72620Y-23130
X72660Y-24210
X72720Y-38740
X72740Y-16400
X72830Y-46710
X72860Y-26140
X72943Y-52792
X73095Y-17725
X73110Y-32711
X73120Y-40242
X73140Y-45740
X73143Y-25218
X73147Y-23618
X73280Y-27020
X73830Y-47160
X74037Y-38618
X74290Y-49640
X74460Y-50230
X74991Y-18818
X75020Y-38630
X75036Y-23618
X75440Y-16270
X75450Y-31310
X75470Y-45250
X75883Y-17717
X75900Y-40242
X75925Y-32670
X75952Y-38645
X75981Y-25222
X75983Y-23622
X76010Y-34320
X76150Y-18150
X76160Y-33080
X76300Y-39940
X76340Y-25200
X76420Y-31650
X76590Y-45230
X76730Y-47230
X76760Y-24300
X76840Y-39030
X77320Y-45250
X77374Y-37544
X77430Y-47250
X77450Y-25240
X77570Y-31650
X77740Y-35830
T2
X32749Y-18257
X32749Y-21800
X32749Y-25807
X32749Y-29350
X32749Y-33207
X32749Y-36750
X32749Y-40707
X32749Y-44250
X32749Y-48257
X32749Y-51800
X33849Y-18257
X33849Y-21800
X33849Y-33207
X33849Y-36750
X33849Y-40707
X33849Y-44250
X33849Y-48257
X33849Y-51800
X33850Y-25807
X33850Y-29350
X40799Y-16457
X40799Y-20000
X40799Y-46357
X40799Y-49900
X40849Y-31407
X40849Y-34950
X40849Y-38957
X40849Y-42500
X40899Y-23857
X40899Y-27400
X42667Y-29161
X46210Y-29161
X48249Y-37907
X48249Y-41450
X48349Y-30357
X48349Y-33900
X48349Y-45967
X48349Y-49510
X49037Y-15100
X49037Y-16100
X49037Y-17100
X49037Y-18100
X49037Y-19100
X49037Y-20100
X49037Y-21100
X49037Y-22100
X49037Y-23100
X49037Y-24100
X49037Y-25100
X49037Y-26100
X50237Y-20771
X53780Y-20771
X55037Y-15100
X55037Y-16100
X55037Y-17100
X55037Y-18100
X55037Y-19100
X55037Y-20100
X55037Y-21100
X55037Y-22100
X55037Y-23100
X55037Y-24100
X55037Y-25100
X55037Y-26100
X55799Y-38757
X55799Y-42300
X55849Y-46357
X55849Y-49900
X55880Y-31257
X55880Y-34800
X62749Y-16407
X62749Y-19950
X63249Y-24207
X63249Y-27750
X63349Y-32269
X63349Y-35812
X63399Y-39807
X63399Y-43350
X63849Y-16407
X63849Y-19950
X64981Y-45101
X65177Y-22630
X68525Y-45101
X68720Y-22630
X70249Y-24757
X70249Y-28300
X70799Y-40507
X70799Y-44050
X70849Y-32957
X70849Y-36500
X71349Y-25557
X71349Y-29100
X73560Y-46260
X74560Y-46260
X75560Y-46260
X75837Y-48691
X78906Y-50462
T3
X27568Y-21552
X27568Y-29052
X27568Y-36552
X27568Y-44052
X27568Y-51552
X31543Y-21552
X31543Y-29052
X31543Y-36552
X31543Y-44052
X31543Y-51552
X35068Y-21552
X35068Y-29052
X35068Y-36552
X35068Y-44052
X35068Y-51552
X39043Y-21552
X39043Y-29052
X39043Y-36552
X39043Y-44052
X39043Y-51552
X42568Y-19677
X42568Y-27177
X42568Y-34677
X42568Y-42177
X42568Y-49677
X46543Y-19677
X46543Y-27177
X46543Y-34677
X46543Y-42177
X46543Y-49677
X50068Y-18740
X50068Y-26240
X50068Y-33740
X50068Y-41240
X50068Y-48740
X54043Y-18740
X54043Y-26240
X54043Y-33740
X54043Y-41240
X54043Y-48740
X57568Y-19677
X57568Y-27177
X57568Y-34677
X57568Y-42177
X57568Y-49677
X61543Y-19677
X61543Y-27177
X61543Y-34677
X61543Y-42177
X61543Y-49677
X65068Y-20615
X65068Y-28115
X65068Y-35615
X65068Y-43115
X65749Y-50591
X69043Y-20615
X69043Y-28115
X69043Y-35615
X69043Y-43115
X69191Y-52578
X72568Y-21364
X72568Y-28864
X72568Y-36364
X72568Y-43864
X75833Y-55053
X76542Y-21364
X76542Y-28864
X76542Y-36364
X76542Y-43864
X77820Y-51611
T4
X35733Y-16418
X38267Y-16062
T5
X28037Y-21056
X28037Y-28556
X28037Y-36056
X28037Y-43556
X28037Y-51056
X31037Y-21056
X31037Y-28556
X31037Y-36056
X31037Y-43556
X31037Y-51056
X35537Y-21056
X35537Y-28556
X35537Y-36056
X35537Y-43556
X35537Y-51056
X38537Y-21056
X38537Y-28556
X38537Y-36056
X38537Y-43556
X38537Y-51056
X43037Y-19181
X43037Y-26681
X43037Y-34181
X43037Y-41681
X43037Y-49181
X46037Y-19181
X46037Y-26681
X46037Y-34181
X46037Y-41681
X46037Y-49181
X50537Y-18244
X50537Y-25744
X50537Y-33244
X50537Y-40744
X50537Y-48244
X53537Y-18244
X53537Y-25744
X53537Y-33244
X53537Y-40744
X53537Y-48244
X58037Y-19181
X58037Y-26681
X58037Y-34181
X58037Y-41681
X58037Y-49181
X61037Y-19181
X61037Y-26681
X61037Y-34181
X61037Y-41681
X61037Y-49181
X65537Y-20118
X65537Y-27618
X65537Y-35118
X65537Y-42618
X66402Y-50395
X68537Y-20118
X68537Y-27618
X68537Y-35118
X68537Y-42618
X69000Y-51895
X73036Y-20868
X73036Y-28368
X73036Y-35868
X73036Y-43368
X75638Y-54399
X76036Y-20868
X76036Y-28368
X76036Y-35868
X76036Y-43368
X77138Y-51801
T7
X29537Y-22379
X29537Y-29879
X29537Y-37379
X29537Y-44879
X29537Y-52379
X37037Y-22379
X37037Y-29879
X37037Y-37379
X37037Y-44879
X37037Y-52379
X44537Y-20504
X44537Y-28004
X44537Y-35504
X44537Y-43004
X44537Y-50504
X52037Y-19566
X52037Y-27066
X52037Y-34566
X52037Y-42066
X52037Y-49567
X59537Y-20504
X59537Y-28004
X59537Y-35504
X59537Y-43004
X59537Y-50504
X67037Y-21441
X67037Y-28941
X67037Y-36441
X67037Y-43941
X67040Y-52291
X74536Y-22190
X74536Y-29690
X74536Y-37190
X74536Y-44690
X77533Y-53762
T2
G00X69953Y-16540
M15
G01X69953Y-16737
M16
G05
G00X69953Y-17722
M15
G01X69953Y-17918
M16
G05
G00X69953Y-19306
M15
G01X69953Y-20093
M16
G05
G00X71607Y-16540
M15
G01X71607Y-16737
M16
G05
G00X71607Y-17722
M15
G01X71607Y-17918
M16
G05
G00X71607Y-19306
M15
G01X71607Y-20093
M16
G05
T6
G00X28545Y-22032
M15
G01X28545Y-21623
M16
G05
G00X28545Y-29532
M15
G01X28545Y-29123
M16
G05
G00X28545Y-37032
M15
G01X28545Y-36623
M16
G05
G00X28545Y-44532
M15
G01X28545Y-44123
M16
G05
G00X28545Y-52032
M15
G01X28545Y-51624
M16
G05
G00X30529Y-22032
M15
G01X30529Y-21623
M16
G05
G00X30529Y-29532
M15
G01X30529Y-29123
M16
G05
G00X30529Y-37032
M15
G01X30529Y-36623
M16
G05
G00X30529Y-44532
M15
G01X30529Y-44123
M16
G05
G00X30529Y-52032
M15
G01X30529Y-51624
M16
G05
G00X36045Y-22032
M15
G01X36045Y-21623
M16
G05
G00X36045Y-29532
M15
G01X36045Y-29123
M16
G05
G00X36045Y-37032
M15
G01X36045Y-36623
M16
G05
G00X36045Y-44532
M15
G01X36045Y-44123
M16
G05
G00X36045Y-52032
M15
G01X36045Y-51624
M16
G05
G00X38029Y-22032
M15
G01X38029Y-21623
M16
G05
G00X38029Y-29532
M15
G01X38029Y-29123
M16
G05
G00X38029Y-37032
M15
G01X38029Y-36623
M16
G05
G00X38029Y-44532
M15
G01X38029Y-44123
M16
G05
G00X38029Y-52032
M15
G01X38029Y-51624
M16
G05
G00X43545Y-20157
M15
G01X43545Y-19748
M16
G05
G00X43545Y-27657
M15
G01X43545Y-27248
M16
G05
G00X43545Y-35157
M15
G01X43545Y-34748
M16
G05
G00X43545Y-42657
M15
G01X43545Y-42248
M16
G05
G00X43545Y-50157
M15
G01X43545Y-49749
M16
G05
G00X45529Y-20157
M15
G01X45529Y-19748
M16
G05
G00X45529Y-27657
M15
G01X45529Y-27248
M16
G05
G00X45529Y-35157
M15
G01X45529Y-34748
M16
G05
G00X45529Y-42657
M15
G01X45529Y-42248
M16
G05
G00X45529Y-50157
M15
G01X45529Y-49749
M16
G05
G00X51045Y-19219
M15
G01X51045Y-18811
M16
G05
G00X51045Y-26719
M15
G01X51045Y-26311
M16
G05
G00X51045Y-34219
M15
G01X51045Y-33811
M16
G05
G00X51045Y-41719
M15
G01X51045Y-41311
M16
G05
G00X51045Y-49220
M15
G01X51045Y-48811
M16
G05
G00X53029Y-19219
M15
G01X53029Y-18811
M16
G05
G00X53029Y-26719
M15
G01X53029Y-26311
M16
G05
G00X53029Y-34219
M15
G01X53029Y-33811
M16
G05
G00X53029Y-41719
M15
G01X53029Y-41311
M16
G05
G00X53029Y-49220
M15
G01X53029Y-48811
M16
G05
G00X58545Y-20157
M15
G01X58545Y-19748
M16
G05
G00X58545Y-27657
M15
G01X58545Y-27248
M16
G05
G00X58545Y-35157
M15
G01X58545Y-34748
M16
G05
G00X58545Y-42657
M15
G01X58545Y-42248
M16
G05
G00X58545Y-50157
M15
G01X58545Y-49749
M16
G05
G00X60529Y-20157
M15
G01X60529Y-19748
M16
G05
G00X60529Y-27657
M15
G01X60529Y-27248
M16
G05
G00X60529Y-35157
M15
G01X60529Y-34748
M16
G05
G00X60529Y-42657
M15
G01X60529Y-42248
M16
G05
G00X60529Y-50157
M15
G01X60529Y-49749
M16
G05
G00X66045Y-21094
M15
G01X66045Y-20686
M16
G05
G00X66045Y-28594
M15
G01X66045Y-28186
M16
G05
G00X66045Y-36094
M15
G01X66045Y-35686
M16
G05
G00X66045Y-43594
M15
G01X66045Y-43186
M16
G05
G00X66354Y-51494
M15
G01X66558Y-51141
M16
G05
G00X68029Y-21094
M15
G01X68029Y-20686
M16
G05
G00X68029Y-28594
M15
G01X68029Y-28186
M16
G05
G00X68029Y-36094
M15
G01X68029Y-35686
M16
G05
G00X68029Y-43594
M15
G01X68029Y-43186
M16
G05
G00X68073Y-52486
M15
G01X68277Y-52133
M16
G05
G00X73544Y-21843
M15
G01X73544Y-21435
M16
G05
G00X73544Y-29343
M15
G01X73544Y-28935
M16
G05
G00X73544Y-36843
M15
G01X73544Y-36435
M16
G05
G00X73544Y-44343
M15
G01X73544Y-43935
M16
G05
G00X75528Y-21843
M15
G01X75528Y-21435
M16
G05
G00X75528Y-29343
M15
G01X75528Y-28935
M16
G05
G00X75528Y-36843
M15
G01X75528Y-36435
M16
G05
G00X75528Y-44343
M15
G01X75528Y-43935
M16
G05
G00X76737Y-54447
M15
G01X76383Y-54243
M16
G05
G00X77729Y-52729
M15
G01X77375Y-52525
M16
G05
T0
M30
