G04 #@! TF.GenerationSoftware,KiCad,Pcbnew,(5.1.10)-1*
G04 #@! TF.CreationDate,2022-02-03T22:34:05+03:00*
G04 #@! TF.ProjectId,Kapl,4b61706c-2e6b-4696-9361-645f70636258,rev?*
G04 #@! TF.SameCoordinates,Original*
G04 #@! TF.FileFunction,Legend,Bot*
G04 #@! TF.FilePolarity,Positive*
%FSLAX46Y46*%
G04 Gerber Fmt 4.6, Leading zero omitted, Abs format (unit mm)*
G04 Created by KiCad (PCBNEW (5.1.10)-1) date 2022-02-03 22:34:05*
%MOMM*%
%LPD*%
G01*
G04 APERTURE LIST*
%ADD10C,0.125000*%
%ADD11C,0.150000*%
%ADD12C,0.500000*%
%ADD13C,0.120000*%
G04 APERTURE END LIST*
D10*
X110269349Y-132303780D02*
X110269349Y-131303780D01*
X109697921Y-132303780D02*
X110126492Y-131732352D01*
X109697921Y-131303780D02*
X110269349Y-131875209D01*
X108840778Y-132303780D02*
X108840778Y-131779971D01*
X108888397Y-131684733D01*
X108983635Y-131637114D01*
X109174111Y-131637114D01*
X109269349Y-131684733D01*
X108840778Y-132256161D02*
X108936016Y-132303780D01*
X109174111Y-132303780D01*
X109269349Y-132256161D01*
X109316968Y-132160923D01*
X109316968Y-132065685D01*
X109269349Y-131970447D01*
X109174111Y-131922828D01*
X108936016Y-131922828D01*
X108840778Y-131875209D01*
X108364587Y-131637114D02*
X108364587Y-132637114D01*
X108364587Y-131684733D02*
X108269349Y-131637114D01*
X108078873Y-131637114D01*
X107983635Y-131684733D01*
X107936016Y-131732352D01*
X107888397Y-131827590D01*
X107888397Y-132113304D01*
X107936016Y-132208542D01*
X107983635Y-132256161D01*
X108078873Y-132303780D01*
X108269349Y-132303780D01*
X108364587Y-132256161D01*
X107316968Y-132303780D02*
X107412206Y-132256161D01*
X107459825Y-132160923D01*
X107459825Y-131303780D01*
X106269349Y-131637114D02*
X106031254Y-132303780D01*
X105793159Y-131637114D01*
X104888397Y-132303780D02*
X105459825Y-132303780D01*
X105174111Y-132303780D02*
X105174111Y-131303780D01*
X105269349Y-131446638D01*
X105364587Y-131541876D01*
X105459825Y-131589495D01*
X104459825Y-132208542D02*
X104412206Y-132256161D01*
X104459825Y-132303780D01*
X104507445Y-132256161D01*
X104459825Y-132208542D01*
X104459825Y-132303780D01*
X103793159Y-131303780D02*
X103697921Y-131303780D01*
X103602683Y-131351400D01*
X103555064Y-131399019D01*
X103507445Y-131494257D01*
X103459825Y-131684733D01*
X103459825Y-131922828D01*
X103507445Y-132113304D01*
X103555064Y-132208542D01*
X103602683Y-132256161D01*
X103697921Y-132303780D01*
X103793159Y-132303780D01*
X103888397Y-132256161D01*
X103936016Y-132208542D01*
X103983635Y-132113304D01*
X104031254Y-131922828D01*
X104031254Y-131684733D01*
X103983635Y-131494257D01*
X103936016Y-131399019D01*
X103888397Y-131351400D01*
X103793159Y-131303780D01*
D11*
X132671200Y-53455800D02*
X132671200Y-52055800D01*
X132671200Y-52755800D02*
X131771200Y-53455800D01*
X131771200Y-52055800D02*
X132671200Y-52755800D01*
X131771200Y-53455800D02*
X131771200Y-52055800D01*
X196668404Y-126813518D02*
X197368404Y-125601082D01*
X197018404Y-126207300D02*
X195888981Y-126363518D01*
X196588981Y-125151082D02*
X197018404Y-126207300D01*
X195888981Y-126363518D02*
X196588981Y-125151082D01*
X170123000Y-115254000D02*
X170123000Y-113854000D01*
X170123000Y-114554000D02*
X169223000Y-115254000D01*
X169223000Y-113854000D02*
X170123000Y-114554000D01*
X169223000Y-115254000D02*
X169223000Y-113854000D01*
X141159000Y-122816000D02*
X142559000Y-122816000D01*
X141859000Y-122816000D02*
X141159000Y-121916000D01*
X142559000Y-121916000D02*
X141859000Y-122816000D01*
X141159000Y-121916000D02*
X142559000Y-121916000D01*
X122109000Y-121825400D02*
X123509000Y-121825400D01*
X122809000Y-121825400D02*
X122109000Y-120925400D01*
X123509000Y-120925400D02*
X122809000Y-121825400D01*
X122109000Y-120925400D02*
X123509000Y-120925400D01*
X102932000Y-122816000D02*
X104332000Y-122816000D01*
X103632000Y-122816000D02*
X102932000Y-121916000D01*
X104332000Y-121916000D02*
X103632000Y-122816000D01*
X102932000Y-121916000D02*
X104332000Y-121916000D01*
X85279000Y-127642000D02*
X86679000Y-127642000D01*
X85979000Y-127642000D02*
X85279000Y-126742000D01*
X86679000Y-126742000D02*
X85979000Y-127642000D01*
X85279000Y-126742000D02*
X86679000Y-126742000D01*
X82485000Y-127642000D02*
X83885000Y-127642000D01*
X83185000Y-127642000D02*
X82485000Y-126742000D01*
X83885000Y-126742000D02*
X83185000Y-127642000D01*
X82485000Y-126742000D02*
X83885000Y-126742000D01*
X179132000Y-107957000D02*
X180532000Y-107957000D01*
X179832000Y-107957000D02*
X179132000Y-107057000D01*
X180532000Y-107057000D02*
X179832000Y-107957000D01*
X179132000Y-107057000D02*
X180532000Y-107057000D01*
X160336000Y-106179000D02*
X161736000Y-106179000D01*
X161036000Y-106179000D02*
X160336000Y-105279000D01*
X161736000Y-105279000D02*
X161036000Y-106179000D01*
X160336000Y-105279000D02*
X161736000Y-105279000D01*
X141032000Y-103512000D02*
X142432000Y-103512000D01*
X141732000Y-103512000D02*
X141032000Y-102612000D01*
X142432000Y-102612000D02*
X141732000Y-103512000D01*
X141032000Y-102612000D02*
X142432000Y-102612000D01*
X121855000Y-101353000D02*
X123255000Y-101353000D01*
X122555000Y-101353000D02*
X121855000Y-100453000D01*
X123255000Y-100453000D02*
X122555000Y-101353000D01*
X121855000Y-100453000D02*
X123255000Y-100453000D01*
X103059000Y-104020000D02*
X104459000Y-104020000D01*
X103759000Y-104020000D02*
X103059000Y-103120000D01*
X104459000Y-103120000D02*
X103759000Y-104020000D01*
X103059000Y-103120000D02*
X104459000Y-103120000D01*
X85279000Y-108465000D02*
X86679000Y-108465000D01*
X85979000Y-108465000D02*
X85279000Y-107565000D01*
X86679000Y-107565000D02*
X85979000Y-108465000D01*
X85279000Y-107565000D02*
X86679000Y-107565000D01*
X82485000Y-108465000D02*
X83885000Y-108465000D01*
X83185000Y-108465000D02*
X82485000Y-107565000D01*
X83885000Y-107565000D02*
X83185000Y-108465000D01*
X82485000Y-107565000D02*
X83885000Y-107565000D01*
X179259000Y-88780000D02*
X180659000Y-88780000D01*
X179959000Y-88780000D02*
X179259000Y-87880000D01*
X180659000Y-87880000D02*
X179959000Y-88780000D01*
X179259000Y-87880000D02*
X180659000Y-87880000D01*
X160209000Y-87032300D02*
X161609000Y-87032300D01*
X160909000Y-87032300D02*
X160209000Y-86132300D01*
X161609000Y-86132300D02*
X160909000Y-87032300D01*
X160209000Y-86132300D02*
X161609000Y-86132300D01*
X141238000Y-84462000D02*
X142638000Y-84462000D01*
X141938000Y-84462000D02*
X141238000Y-83562000D01*
X142638000Y-83562000D02*
X141938000Y-84462000D01*
X141238000Y-83562000D02*
X142638000Y-83562000D01*
X122109000Y-82176000D02*
X123509000Y-82176000D01*
X122809000Y-82176000D02*
X122109000Y-81276000D01*
X123509000Y-81276000D02*
X122809000Y-82176000D01*
X122109000Y-81276000D02*
X123509000Y-81276000D01*
X103059000Y-84843000D02*
X104459000Y-84843000D01*
X103759000Y-84843000D02*
X103059000Y-83943000D01*
X104459000Y-83943000D02*
X103759000Y-84843000D01*
X103059000Y-83943000D02*
X104459000Y-83943000D01*
X85279000Y-89415000D02*
X86679000Y-89415000D01*
X85979000Y-89415000D02*
X85279000Y-88515000D01*
X86679000Y-88515000D02*
X85979000Y-89415000D01*
X85279000Y-88515000D02*
X86679000Y-88515000D01*
X82485000Y-89415000D02*
X83885000Y-89415000D01*
X83185000Y-89415000D02*
X82485000Y-88515000D01*
X83885000Y-88515000D02*
X83185000Y-89415000D01*
X82485000Y-88515000D02*
X83885000Y-88515000D01*
X180529000Y-69984000D02*
X181929000Y-69984000D01*
X181229000Y-69984000D02*
X180529000Y-69084000D01*
X181929000Y-69084000D02*
X181229000Y-69984000D01*
X180529000Y-69084000D02*
X181929000Y-69084000D01*
X177735000Y-67952000D02*
X179135000Y-67952000D01*
X178435000Y-67952000D02*
X177735000Y-67052000D01*
X179135000Y-67052000D02*
X178435000Y-67952000D01*
X177735000Y-67052000D02*
X179135000Y-67052000D01*
X159955000Y-66555000D02*
X161355000Y-66555000D01*
X160655000Y-66555000D02*
X159955000Y-65655000D01*
X161355000Y-65655000D02*
X160655000Y-66555000D01*
X159955000Y-65655000D02*
X161355000Y-65655000D01*
X113443400Y-74766400D02*
X113443400Y-73366400D01*
X113443400Y-74066400D02*
X112543400Y-74766400D01*
X112543400Y-73366400D02*
X113443400Y-74066400D01*
X112543400Y-74766400D02*
X112543400Y-73366400D01*
X103186000Y-65666000D02*
X104586000Y-65666000D01*
X103886000Y-65666000D02*
X103186000Y-64766000D01*
X104586000Y-64766000D02*
X103886000Y-65666000D01*
X103186000Y-64766000D02*
X104586000Y-64766000D01*
X85281540Y-70619000D02*
X86681540Y-70619000D01*
X85981540Y-70619000D02*
X85281540Y-69719000D01*
X86681540Y-69719000D02*
X85981540Y-70619000D01*
X85281540Y-69719000D02*
X86681540Y-69719000D01*
X82485000Y-70619000D02*
X83885000Y-70619000D01*
X83185000Y-70619000D02*
X82485000Y-69719000D01*
X83885000Y-69719000D02*
X83185000Y-70619000D01*
X82485000Y-69719000D02*
X83885000Y-69719000D01*
X170618800Y-58177660D02*
X170618800Y-56777660D01*
X170618800Y-57477660D02*
X169718800Y-58177660D01*
X169718800Y-56777660D02*
X170618800Y-57477660D01*
X169718800Y-58177660D02*
X169718800Y-56777660D01*
X161479000Y-46743000D02*
X162879000Y-46743000D01*
X162179000Y-46743000D02*
X161479000Y-45843000D01*
X162879000Y-45843000D02*
X162179000Y-46743000D01*
X161479000Y-45843000D02*
X162879000Y-45843000D01*
X158685000Y-46743000D02*
X160085000Y-46743000D01*
X159385000Y-46743000D02*
X158685000Y-45843000D01*
X160085000Y-45843000D02*
X159385000Y-46743000D01*
X158685000Y-45843000D02*
X160085000Y-45843000D01*
X102932000Y-46870000D02*
X104332000Y-46870000D01*
X103632000Y-46870000D02*
X102932000Y-45970000D01*
X104332000Y-45970000D02*
X103632000Y-46870000D01*
X102932000Y-45970000D02*
X104332000Y-45970000D01*
X85279000Y-51442000D02*
X86679000Y-51442000D01*
X85979000Y-51442000D02*
X85279000Y-50542000D01*
X86679000Y-50542000D02*
X85979000Y-51442000D01*
X85279000Y-50542000D02*
X86679000Y-50542000D01*
X82485000Y-51442000D02*
X83885000Y-51442000D01*
X83185000Y-51442000D02*
X82485000Y-50542000D01*
X83885000Y-50542000D02*
X83185000Y-51442000D01*
X82485000Y-50542000D02*
X83885000Y-50542000D01*
D12*
X186889870Y-121516693D02*
G75*
G03*
X186889870Y-121516693I-2000000J0D01*
G01*
X86548800Y-117616950D02*
G75*
G03*
X86548800Y-117616950I-2000000J0D01*
G01*
X181193531Y-58205103D02*
G75*
G03*
X181193531Y-58205103I-2000000J0D01*
G01*
X165429739Y-122049778D02*
G75*
G03*
X165429739Y-122049778I-2000000J0D01*
G01*
X147523875Y-55705150D02*
G75*
G03*
X147523875Y-55705150I-2000000J0D01*
G01*
X181798850Y-97138600D02*
G75*
G03*
X181798850Y-97138600I-2000000J0D01*
G01*
X120823525Y-55705150D02*
G75*
G03*
X120823525Y-55705150I-2000000J0D01*
G01*
X124082243Y-112556162D02*
G75*
G03*
X124082243Y-112556162I-2000000J0D01*
G01*
X86548800Y-60466950D02*
G75*
G03*
X86548800Y-60466950I-2000000J0D01*
G01*
D13*
X138930225Y-42621200D02*
G75*
G03*
X138930225Y-42621200I-152400J0D01*
G01*
X138930225Y-45161200D02*
G75*
G03*
X138930225Y-45161200I-152400J0D01*
G01*
X125722225Y-40182800D02*
G75*
G03*
X125722225Y-40182800I-152400J0D01*
G01*
D11*
X187965433Y-133598349D02*
G75*
G03*
X187965433Y-133598349I-250000J0D01*
G01*
X179009949Y-122514167D02*
G75*
G03*
X179009949Y-122514167I-250000J0D01*
G01*
X153656200Y-115094000D02*
G75*
G03*
X153656200Y-115094000I-250000J0D01*
G01*
X134572200Y-112743000D02*
G75*
G03*
X134572200Y-112743000I-250000J0D01*
G01*
X115556200Y-115159000D02*
G75*
G03*
X115556200Y-115159000I-250000J0D01*
G01*
X96472200Y-119793000D02*
G75*
G03*
X96472200Y-119793000I-250000J0D01*
G01*
X77515200Y-119855000D02*
G75*
G03*
X77515200Y-119855000I-250000J0D01*
G01*
X191756200Y-100365000D02*
G75*
G03*
X191756200Y-100365000I-250000J0D01*
G01*
X172672200Y-98395000D02*
G75*
G03*
X172672200Y-98395000I-250000J0D01*
G01*
X153588200Y-96044000D02*
G75*
G03*
X153588200Y-96044000I-250000J0D01*
G01*
X134631200Y-93693000D02*
G75*
G03*
X134631200Y-93693000I-250000J0D01*
G01*
X115556200Y-95985000D02*
G75*
G03*
X115556200Y-95985000I-250000J0D01*
G01*
X96472200Y-100746000D02*
G75*
G03*
X96472200Y-100746000I-250000J0D01*
G01*
X77515200Y-100808000D02*
G75*
G03*
X77515200Y-100808000I-250000J0D01*
G01*
X191730400Y-81235800D02*
G75*
G03*
X191730400Y-81235800I-250000J0D01*
G01*
X172697200Y-79342000D02*
G75*
G03*
X172697200Y-79342000I-250000J0D01*
G01*
X153622200Y-76935000D02*
G75*
G03*
X153622200Y-76935000I-250000J0D01*
G01*
X134538200Y-74584000D02*
G75*
G03*
X134538200Y-74584000I-250000J0D01*
G01*
X115581200Y-76932000D02*
G75*
G03*
X115581200Y-76932000I-250000J0D01*
G01*
X96497200Y-81693000D02*
G75*
G03*
X96497200Y-81693000I-250000J0D01*
G01*
X77413200Y-81755000D02*
G75*
G03*
X77413200Y-81755000I-250000J0D01*
G01*
X191815200Y-62203000D02*
G75*
G03*
X191815200Y-62203000I-250000J0D01*
G01*
X172731200Y-60360000D02*
G75*
G03*
X172731200Y-60360000I-250000J0D01*
G01*
X153647200Y-57882000D02*
G75*
G03*
X153647200Y-57882000I-250000J0D01*
G01*
X134563200Y-55531000D02*
G75*
G03*
X134563200Y-55531000I-250000J0D01*
G01*
X115582376Y-57953655D02*
G75*
G03*
X115582376Y-57953655I-250000J0D01*
G01*
X96556200Y-62711000D02*
G75*
G03*
X96556200Y-62711000I-250000J0D01*
G01*
X77447200Y-62646000D02*
G75*
G03*
X77447200Y-62646000I-250000J0D01*
G01*
X191713200Y-43150000D02*
G75*
G03*
X191713200Y-43150000I-250000J0D01*
G01*
X172756200Y-41307000D02*
G75*
G03*
X172756200Y-41307000I-250000J0D01*
G01*
X153647200Y-38835000D02*
G75*
G03*
X153647200Y-38835000I-250000J0D01*
G01*
X134588600Y-36534800D02*
G75*
G03*
X134588600Y-36534800I-250000J0D01*
G01*
X115606200Y-38832000D02*
G75*
G03*
X115606200Y-38832000I-250000J0D01*
G01*
X96590200Y-43661000D02*
G75*
G03*
X96590200Y-43661000I-250000J0D01*
G01*
X77455400Y-43604200D02*
G75*
G03*
X77455400Y-43604200I-250000J0D01*
G01*
X153835900Y-114633150D02*
G75*
G03*
X153835900Y-114633150I-250000J0D01*
G01*
X115735900Y-114680600D02*
G75*
G03*
X115735900Y-114680600I-250000J0D01*
G01*
X77635975Y-119394950D02*
G75*
G03*
X77635975Y-119394950I-250000J0D01*
G01*
X77635975Y-62244950D02*
G75*
G03*
X77635975Y-62244950I-250000J0D01*
G01*
X115735900Y-57483150D02*
G75*
G03*
X115735900Y-57483150I-250000J0D01*
G01*
X153835900Y-57483150D02*
G75*
G03*
X153835900Y-57483150I-250000J0D01*
G01*
X191935083Y-61768900D02*
G75*
G03*
X191935083Y-61768900I-250000J0D01*
G01*
X191936050Y-99868900D02*
G75*
G03*
X191936050Y-99868900I-250000J0D01*
G01*
X181336684Y-119973783D02*
G75*
G03*
X181336684Y-119973783I-250000J0D01*
G01*
M02*
